<svg width="48" height="16" viewBox="0 0 48 16" fill="none" xmlns="http://www.w3.org/2000/svg">
<path d="M34.5921 1.43355C33.5074 1.03831 32.3608 0.839972 31.2064 0.847884C27.4731 0.847884 24.8364 2.72855 24.8178 5.42822C24.7944 7.41155 26.6914 8.52922 28.1264 9.19188C29.5988 9.87321 30.0911 10.3026 30.0864 10.9115C30.0771 11.8379 28.9104 12.2579 27.8254 12.2579C26.3344 12.2579 25.5201 12.0502 24.2671 11.5299L23.8028 11.3129L23.2731 14.4209C24.1807 14.7989 25.8164 15.1232 27.5058 15.1512C31.4748 15.1512 34.0694 13.2822 34.0998 10.4099C34.1324 8.82555 33.1058 7.62855 30.9451 6.63922C29.6314 5.99755 28.8171 5.56822 28.8171 4.91722C28.8171 4.34088 29.5148 3.72488 30.9731 3.72488C31.9437 3.7014 32.9082 3.8835 33.8034 4.25922L34.1534 4.41555L34.6831 1.41255L34.5921 1.43355ZM44.2801 1.09988H41.3634C40.4558 1.09988 39.7721 1.34955 39.3754 2.25022L33.7661 14.9576H37.7351L38.5284 12.8739L43.3724 12.8785C43.4868 13.3662 43.8368 14.9576 43.8368 14.9576H47.3368L44.2801 1.09988ZM19.4488 0.983216H23.2311L20.8651 14.8479H17.0874L19.4488 0.97855V0.983216ZM9.84708 8.62488L10.2391 10.5499L13.9351 1.09988H17.9414L11.9891 14.9389H7.99208L4.72542 3.22088C4.67251 3.02766 4.54826 2.86172 4.37775 2.75655C3.20035 2.14834 1.95283 1.68678 0.663086 1.38222L0.714419 1.09055H6.80209C7.62809 1.12322 8.29309 1.38222 8.51475 2.26422L9.84475 8.63188V8.62488H9.84708ZM39.6134 10.0389L41.1208 6.16088C41.1021 6.20288 41.4311 5.36055 41.6224 4.84022L41.8814 6.03722L42.7564 10.0365H39.6111V10.0389H39.6134Z" fill="white"/>
</svg>
