<svg width="167" height="56" viewBox="0 0 167 56" fill="none" xmlns="http://www.w3.org/2000/svg">
<g clip-path="url(#clip0_14778_39625)">
<path d="M68.4658 28.2735C68.4427 26.1792 68.835 24.1008 69.6204 22.1567C70.3459 20.3737 71.4263 18.7542 72.7971 17.3949C74.1679 16.0356 75.8008 14.9644 77.5984 14.2454C79.8431 13.376 82.2545 13.0123 84.6582 13.1807C87.0619 13.3491 89.3979 14.0453 91.4971 15.2191C93.8601 16.6171 95.7334 18.701 96.8641 21.1892L93.435 22.4188C92.8145 21.1675 91.9241 20.0669 90.827 19.195C89.7935 18.3858 88.6212 17.7684 87.3665 17.3725C86.1364 16.9794 84.8523 16.7784 83.5599 16.7764C81.635 16.7511 79.7381 17.2348 78.064 18.1776C76.4246 19.111 75.0901 20.4922 74.2197 22.1567C73.2927 23.8835 72.8292 25.9193 72.8292 28.2641C72.7792 30.3684 73.257 32.4521 74.2197 34.3279C75.0933 35.9992 76.4276 37.3899 78.0672 38.3381C79.7373 39.2927 81.6358 39.7832 83.5631 39.7581C84.8857 39.7602 86.2 39.5494 87.4546 39.1339C88.7766 38.6889 89.9974 37.9901 91.0472 37.0773C92.2172 36.0494 93.1506 34.7839 93.7842 33.3667L97.2038 34.5526C95.9224 37.5506 94.0841 39.7779 91.689 41.2343C89.5731 42.4529 87.2076 43.1831 84.7683 43.3706C82.3289 43.5581 79.8783 43.198 77.5984 42.3172C75.8127 41.5982 74.1909 40.5305 72.8292 39.1776C71.4472 37.8004 70.3562 36.1632 69.6204 34.3622C68.836 32.4276 68.4437 30.3586 68.4658 28.2735Z" fill="#470B96"/>
<path d="M111.444 43.4197C109.541 43.4494 107.662 42.9892 105.992 42.084C104.398 41.2056 103.089 39.896 102.217 38.3078C101.27 36.5403 100.798 34.5603 100.848 32.5592C100.791 30.5345 101.272 28.5304 102.242 26.7482C103.141 25.1489 104.475 23.8328 106.093 22.9502C107.771 22.0464 109.657 21.5864 111.566 21.6145C113.483 21.5892 115.375 22.0489 117.062 22.9502C118.683 23.8246 120.024 25.133 120.932 26.7264C121.907 28.4851 122.394 30.4686 122.344 32.4749C122.396 34.5041 121.901 36.5102 120.91 38.2859C119.992 39.892 118.635 41.2085 116.996 42.084C115.289 42.9871 113.379 43.4466 111.444 43.4197ZM111.403 39.7714C112.52 39.7762 113.621 39.5072 114.609 38.9881C115.638 38.433 116.491 37.6026 117.069 36.5913C117.71 35.5136 118.031 34.1415 118.031 32.4749C118.031 30.8084 117.724 29.4561 117.11 28.4179C116.553 27.4108 115.714 26.5858 114.694 26.0429C113.705 25.529 112.604 25.2663 111.488 25.2783C110.403 25.2708 109.334 25.5417 108.386 26.0648C107.393 26.6248 106.583 27.457 106.055 28.4616C105.457 29.5351 105.158 30.9062 105.158 32.5748C105.158 34.2434 105.451 35.5958 106.036 36.6319C106.553 37.6253 107.347 38.4506 108.323 39.0099C109.266 39.5241 110.327 39.7865 111.403 39.7714Z" fill="#470B96"/>
<path d="M126.84 12.5781H130.87V43.1216H126.84V12.5781Z" fill="#470B96"/>
<path d="M136.549 12.5781H140.566V43.1216H136.549V12.5781Z" fill="#470B96"/>
<path d="M155.619 43.4185C153.716 43.4482 151.838 42.988 150.168 42.0828C148.574 41.2045 147.265 39.8949 146.392 38.3066C145.447 36.5388 144.976 34.5588 145.027 32.5581C144.976 30.5317 145.463 28.5275 146.44 26.7471C147.338 25.1486 148.671 23.8326 150.287 22.9491C151.98 22.0716 153.862 21.6133 155.772 21.6133C157.682 21.6133 159.564 22.0716 161.257 22.9491C162.878 23.8234 164.219 25.1318 165.126 26.7252C166.101 28.4839 166.589 30.4674 166.539 32.4738C166.591 34.5029 166.096 36.509 165.104 38.2848C164.187 39.8907 162.832 41.2073 161.194 42.0828C159.48 42.9886 157.562 43.4482 155.619 43.4185ZM155.579 39.7703C156.696 39.7751 157.797 39.506 158.784 38.987C159.814 38.4318 160.666 37.6015 161.244 36.5902C161.886 35.5124 162.207 34.1403 162.207 32.4738C162.207 30.8073 161.901 29.4549 161.288 28.4167C160.73 27.4115 159.89 26.5887 158.869 26.048C157.881 25.5328 156.78 25.268 155.664 25.2772C154.585 25.2685 153.523 25.5339 152.577 26.048C151.585 26.6083 150.777 27.4404 150.249 28.4448C149.647 29.5184 149.348 30.8895 149.35 32.5581C149.352 34.2267 149.644 35.579 150.227 36.6151C150.745 37.6085 151.539 38.4338 152.514 38.9932C153.451 39.5102 154.507 39.7779 155.579 39.7703Z" fill="#470B96"/>
<path d="M40.4943 56H4.40429C3.2362 56 2.11595 55.5397 1.28999 54.7203C0.464022 53.9009 0 52.7896 0 51.6309L0 14.9144C0 13.7556 0.464022 12.6443 1.28999 11.8249C2.11595 11.0056 3.2362 10.5453 4.40429 10.5453H10.5388V4.36915C10.5388 3.21038 11.0029 2.09907 11.8288 1.27969C12.6548 0.46032 13.775 0 14.9431 0L37.103 0C37.9635 0.00448806 38.8039 0.258951 39.5202 0.731953C40.2366 1.20495 40.7976 1.87577 41.1339 2.66154C41.4702 3.44731 41.5671 4.31359 41.4126 5.15339C41.2581 5.99318 40.8591 6.76969 40.2647 7.38698L33.5639 14.2528C33.1553 14.6713 32.6665 15.0044 32.1263 15.2328C31.586 15.4611 31.0052 15.5799 30.4179 15.5823H15.6321V39.9247H39.8305V24.7731C39.8294 24.2001 39.9429 23.6325 40.1642 23.1033C40.3856 22.574 40.7106 22.0936 41.1204 21.6897L48.4472 14.4088C49.0638 13.8045 49.8463 13.394 50.6969 13.2289C51.5475 13.0637 52.4284 13.1512 53.2291 13.4804C54.0298 13.8096 54.7148 14.3658 55.1983 15.0795C55.6818 15.7931 55.9422 16.6324 55.9471 17.4922V40.6268C55.9471 41.7856 55.4831 42.8969 54.6571 43.7163C53.8312 44.5357 52.7109 44.996 51.5428 44.996H44.8892V51.6496C44.8842 52.8035 44.4193 53.9086 43.5959 54.7236C42.7725 55.5387 41.6575 55.9975 40.4943 56ZM5.08067 50.9599H39.8085V44.9866H14.9243C13.7562 44.9866 12.6359 44.5263 11.81 43.7069C10.984 42.8876 10.52 41.7762 10.52 40.6175V15.6041H5.08067V50.9599ZM44.8892 39.9465H50.8664V19.1337L44.8892 25.0633V39.9465ZM15.6101 10.5546H30.0813L35.4546 5.04012H15.6101V10.5546Z" fill="url(#paint0_linear_14778_39625)"/>
</g>
<defs>
<linearGradient id="paint0_linear_14778_39625" x1="1.03186" y1="54.4646" x2="47.6554" y2="7.46597" gradientUnits="userSpaceOnUse">
<stop stop-color="#470B96"/>
<stop offset="1" stop-color="#E29700"/>
</linearGradient>
<clipPath id="clip0_14778_39625">
<rect width="166.526" height="56" fill="white"/>
</clipPath>
</defs>
</svg>
