<svg width="158" height="154" viewBox="0 0 158 154" fill="none" xmlns="http://www.w3.org/2000/svg">
<path opacity="0.08" fill-rule="evenodd" clip-rule="evenodd" d="M121.963 107.779C114.501 116.774 106.125 124.553 94.9697 127.965C84.0656 131.3 73.0496 129.383 62.1599 126.07C47.9116 121.736 31.5186 119.222 23.9698 106.366C15.2543 91.5233 12.8278 71.6457 21.409 56.6691C29.786 42.0485 48.699 39.6277 64.8632 34.9951C80.0964 30.6292 95.635 25.4861 110.399 31.1646C126.6 37.396 143.564 49.0561 146.161 66.2642C148.643 82.7071 132.593 94.9667 121.963 107.779Z" fill="url(#paint0_linear_10601_77628)"/>
<path d="M57.83 50.2775C57.7891 50.2775 57.7493 50.2646 57.7164 50.2406C57.6834 50.2166 57.6589 50.1828 57.6465 50.144C57.6341 50.1052 57.6344 50.0635 57.6474 50.0249C57.6603 49.9863 57.6853 49.9529 57.7186 49.9293C57.8458 49.8349 57.9681 49.7341 58.085 49.6272C58.1038 49.6104 58.1257 49.5974 58.1496 49.589C58.1734 49.5806 58.1987 49.577 58.2239 49.5784C58.2491 49.5797 58.2738 49.586 58.2966 49.5968C58.3194 49.6077 58.3398 49.6229 58.3567 49.6417C58.3736 49.6604 58.3866 49.6823 58.395 49.706C58.4035 49.7298 58.4071 49.7549 58.4057 49.7801C58.4044 49.8052 58.3981 49.8298 58.3872 49.8526C58.3763 49.8753 58.361 49.8956 58.3422 49.9125C58.2142 50.0294 58.0801 50.1396 57.9406 50.2426C57.9082 50.2653 57.8695 50.2775 57.83 50.2775ZM59.7393 48.222C59.704 48.2219 59.6695 48.2122 59.6393 48.1939C59.6092 48.1756 59.5848 48.1494 59.5686 48.1182C59.5524 48.087 59.5451 48.0519 59.5476 48.0169C59.5501 47.9818 59.5621 47.9481 59.5825 47.9194C60.0217 47.2974 60.4064 46.6389 60.7322 45.9511C60.7426 45.9276 60.7575 45.9063 60.7762 45.8887C60.7949 45.871 60.817 45.8573 60.8411 45.8483C60.8653 45.8393 60.891 45.8352 60.9167 45.8363C60.9424 45.8374 60.9677 45.8436 60.991 45.8546C61.0143 45.8657 61.0351 45.8812 61.0522 45.9004C61.0693 45.9196 61.0824 45.942 61.0907 45.9663C61.099 45.9906 61.1022 46.0164 61.1003 46.042C61.0984 46.0676 61.0914 46.0926 61.0796 46.1154C60.7444 46.8232 60.3486 47.5009 59.8965 48.1409C59.8787 48.1659 59.8551 48.1864 59.8278 48.2005C59.8004 48.2146 59.7701 48.222 59.7393 48.222ZM61.7344 44.0672C61.7157 44.0671 61.697 44.0644 61.679 44.0591C61.6302 44.0445 61.5892 44.0111 61.565 43.9664C61.5408 43.9216 61.5355 43.8691 61.5501 43.8204C61.7683 43.0895 61.9375 42.345 62.0566 41.5918C62.0603 41.5666 62.0689 41.5425 62.082 41.5207C62.0951 41.4989 62.1124 41.4799 62.1329 41.4648C62.1535 41.4498 62.1768 41.4389 62.2015 41.4329C62.2263 41.4269 62.252 41.4259 62.2772 41.4299C62.3024 41.4339 62.3265 41.4428 62.3482 41.4562C62.3698 41.4695 62.3886 41.487 62.4035 41.5077C62.4183 41.5284 62.4288 41.5518 62.4345 41.5765C62.4402 41.6013 62.4409 41.6269 62.4365 41.652C62.3147 42.4221 62.1417 43.1832 61.9187 43.9305C61.9068 43.97 61.8825 44.0046 61.8493 44.0292C61.8161 44.0539 61.7758 44.0672 61.7344 44.0672ZM62.4736 39.514H62.4656C62.4146 39.5119 62.3666 39.4897 62.332 39.4523C62.2975 39.4149 62.2792 39.3654 62.2813 39.3146C62.2936 39.0176 62.3005 38.7126 62.3005 38.4082C62.3009 37.9507 62.2714 37.4938 62.2122 37.0401C62.2086 37.015 62.21 36.9894 62.2164 36.9649C62.2228 36.9403 62.234 36.9172 62.2494 36.897C62.2648 36.8768 62.2841 36.8598 62.3061 36.8471C62.3281 36.8344 62.3525 36.8261 62.3777 36.8228C62.403 36.8195 62.4286 36.8213 62.4532 36.8279C62.4778 36.8346 62.5008 36.8461 62.5209 36.8617C62.5409 36.8773 62.5577 36.8967 62.5702 36.9188C62.5827 36.9409 62.5907 36.9653 62.5937 36.9905C62.655 37.4606 62.6856 37.9341 62.6852 38.4082C62.6852 38.718 62.6789 39.0282 62.666 39.3303C62.6639 39.3797 62.6427 39.4264 62.6068 39.4606C62.571 39.4948 62.5233 39.514 62.4736 39.514ZM61.8389 34.9704C61.7999 34.9704 61.7618 34.9586 61.7297 34.9366C61.6975 34.9145 61.6729 34.8833 61.659 34.8469C61.3882 34.1403 61.0359 33.4673 60.6093 32.8416C60.5951 32.8208 60.5852 32.7974 60.5801 32.7727C60.575 32.748 60.5748 32.7226 60.5796 32.6979C60.5844 32.6731 60.594 32.6496 60.6079 32.6285C60.6218 32.6075 60.6397 32.5894 60.6606 32.5752C60.6815 32.5611 60.705 32.5512 60.7298 32.5461C60.7545 32.541 60.78 32.5409 60.8048 32.5456C60.8297 32.5504 60.8533 32.5599 60.8744 32.5738C60.8955 32.5876 60.9137 32.6055 60.9279 32.6263C61.3711 33.2767 61.7372 33.9762 62.0187 34.7106C62.0277 34.7342 62.0319 34.7592 62.0312 34.7844C62.0304 34.8096 62.0247 34.8344 62.0143 34.8573C62.004 34.8803 61.9892 34.901 61.9708 34.9183C61.9524 34.9355 61.9308 34.949 61.9072 34.9579C61.8854 34.9662 61.8623 34.9703 61.8391 34.9702L61.8389 34.9704ZM47.6237 34.054C47.3123 34.0696 47.0009 34.0216 46.7089 33.9128C46.4168 33.804 46.1502 33.6367 45.9254 33.4214C45.89 33.3847 45.8707 33.3356 45.8717 33.2847C45.8727 33.2339 45.894 33.1855 45.9307 33.1503C45.9675 33.115 46.0169 33.0958 46.0679 33.0968C46.1189 33.0978 46.1674 33.119 46.2027 33.1557C46.6148 33.5826 47.2661 33.7479 48.1032 33.638L48.2042 33.624C48.2547 33.6168 48.306 33.6299 48.3468 33.6604C48.3877 33.6909 48.4146 33.7363 48.4219 33.7867C48.4291 33.837 48.416 33.8881 48.3853 33.9288C48.3547 33.9695 48.3092 33.9964 48.2587 34.0036L48.1542 34.0182C47.9787 34.0416 47.8018 34.0537 47.6246 34.0542L47.6237 34.054ZM50.4483 33.3579C50.4045 33.3584 50.362 33.3439 50.3276 33.3171C50.2932 33.2902 50.269 33.2524 50.259 33.21C50.249 33.1676 50.2538 33.1231 50.2726 33.0837C50.2914 33.0444 50.3231 33.0126 50.3625 32.9937C51.0336 32.6744 51.6071 32.1822 52.0235 31.5681C52.0523 31.5275 52.0958 31.4996 52.1449 31.4905C52.1939 31.4813 52.2446 31.4914 52.2863 31.5188C52.328 31.5462 52.3574 31.5886 52.3682 31.6371C52.3791 31.6857 52.3706 31.7365 52.3445 31.779C51.8908 32.4495 51.2656 32.9871 50.5337 33.3362C50.5076 33.3499 50.4787 33.3574 50.4492 33.3581L50.4483 33.3579ZM45.628 31.3041C45.6133 31.3042 45.5986 31.3026 45.5843 31.2993C45.5597 31.2936 45.5364 31.2832 45.5159 31.2685C45.4953 31.2539 45.4778 31.2354 45.4645 31.214C45.4511 31.1927 45.4421 31.1689 45.4379 31.144C45.4337 31.1192 45.4345 31.0938 45.4402 31.0692C45.6361 30.2846 46.0303 29.5631 46.5851 28.9733C46.6201 28.9376 46.6677 28.9169 46.7178 28.9156C46.7678 28.9144 46.8164 28.9326 46.8532 28.9664C46.8899 29.0003 46.912 29.0471 46.9148 29.0969C46.9175 29.1467 46.9006 29.1956 46.8677 29.2332C46.3581 29.7739 45.9957 30.4356 45.8151 31.1553C45.8055 31.1974 45.7818 31.235 45.748 31.2621C45.7142 31.2891 45.6723 31.304 45.6289 31.3043L45.628 31.3041ZM59.269 31.1657C59.2194 31.1658 59.1718 31.1466 59.1361 31.1124C58.584 30.5885 57.9844 30.1168 57.3448 29.7035C57.3229 29.6901 57.3039 29.6725 57.2889 29.6517C57.274 29.6308 57.2633 29.6073 57.2577 29.5823C57.252 29.5573 57.2514 29.5314 57.256 29.5062C57.2605 29.481 57.27 29.457 57.284 29.4355C57.2981 29.414 57.3162 29.3956 57.3375 29.3812C57.3588 29.3669 57.3828 29.3569 57.408 29.3519C57.4332 29.347 57.4592 29.3471 57.4843 29.3523C57.5095 29.3575 57.5333 29.3676 57.5545 29.3822C58.2139 29.8084 58.8321 30.2949 59.4011 30.8354C59.4289 30.8618 59.4481 30.8959 59.4562 30.9334C59.4644 30.9708 59.4611 31.0098 59.4468 31.0453C59.4325 31.0809 59.4078 31.1113 59.376 31.1328C59.3442 31.1542 59.3066 31.1657 59.2682 31.1657H59.269ZM52.9187 29.6981C52.9122 29.6981 52.9058 29.6981 52.8995 29.6981C52.8743 29.6956 52.8498 29.6881 52.8275 29.6761C52.8052 29.6641 52.7855 29.6479 52.7695 29.6283C52.7535 29.6087 52.7416 29.5861 52.7344 29.5619C52.7272 29.5377 52.7248 29.5123 52.7275 29.4872C52.7494 29.2681 52.7602 29.048 52.7598 28.8277C52.7563 28.2947 52.7042 27.7631 52.6044 27.2394C52.5951 27.1894 52.6062 27.1378 52.6351 27.0959C52.664 27.054 52.7085 27.0253 52.7587 27.0161C52.8088 27.0068 52.8606 27.0178 52.9027 27.0467C52.9447 27.0755 52.9735 27.1198 52.9828 27.1698C53.0099 27.3174 53.0338 27.4633 53.0543 27.6073C53.0771 27.5796 53.1072 27.5589 53.1411 27.5473C53.1751 27.5358 53.2117 27.534 53.2467 27.5421C54.0114 27.7224 54.7589 27.9689 55.4807 28.2787C55.5276 28.2987 55.5646 28.3365 55.5835 28.3838C55.6024 28.431 55.6017 28.4838 55.5816 28.5305C55.5615 28.5772 55.5235 28.6141 55.4762 28.6329C55.4288 28.6518 55.3758 28.6511 55.3289 28.631C54.6278 28.3301 53.9017 28.0907 53.1588 27.9156C53.1336 27.9096 53.1099 27.8987 53.0889 27.8836C53.125 28.197 53.1434 28.5122 53.1441 28.8277C53.1444 29.0608 53.133 29.2937 53.1099 29.5256C53.1051 29.5728 53.0829 29.6166 53.0476 29.6485C53.0123 29.6804 52.9663 29.6981 52.9187 29.6981ZM48.6291 28.0038C48.5844 28.0038 48.541 27.9882 48.5065 27.9598C48.472 27.9313 48.4485 27.8918 48.4401 27.848C48.4317 27.8041 48.4389 27.7587 48.4605 27.7196C48.4821 27.6805 48.5167 27.6502 48.5583 27.6338C48.6772 27.587 48.798 27.544 48.9175 27.5063C49.5351 27.3223 50.1773 27.2338 50.8218 27.2438H50.9055C50.9565 27.2438 51.0054 27.264 51.0415 27.3C51.0776 27.3359 51.0978 27.3847 51.0978 27.4355C51.0978 27.4864 51.0776 27.5351 51.0415 27.5711C51.0054 27.607 50.9565 27.6272 50.9055 27.6272H50.9041H50.8226C50.2179 27.6172 49.6152 27.6997 49.0356 27.8717C48.9211 27.908 48.8096 27.9475 48.7011 27.9902C48.6781 27.9992 48.6535 28.0036 48.6287 28.0032L48.6291 28.0038ZM52.1672 25.171C52.1278 25.171 52.0894 25.1589 52.0571 25.1365C52.0249 25.114 52.0003 25.0823 51.9867 25.0454C51.7198 24.3293 51.4108 23.6294 51.0613 22.9495C51.0498 22.927 51.0428 22.9025 51.0408 22.8774C51.0388 22.8523 51.0417 22.827 51.0495 22.803C51.0573 22.7791 51.0698 22.7569 51.0862 22.7377C51.1026 22.7185 51.1227 22.7028 51.1452 22.6913C51.1677 22.6799 51.1923 22.673 51.2175 22.671C51.2427 22.669 51.2681 22.672 51.2921 22.6798C51.3162 22.6877 51.3384 22.7001 51.3576 22.7165C51.3769 22.7329 51.3926 22.7529 51.4041 22.7754C51.7605 23.4689 52.0757 24.1828 52.3478 24.9134C52.3584 24.9423 52.3619 24.9734 52.3579 25.004C52.3539 25.0346 52.3426 25.0638 52.3248 25.0891C52.3071 25.1144 52.2835 25.1351 52.2561 25.1493C52.2286 25.1636 52.1981 25.171 52.1672 25.171ZM50.0803 21.0463C50.0478 21.0464 50.0159 21.0383 49.9874 21.0227C49.959 21.0072 49.9349 20.9847 49.9175 20.9574C49.5099 20.3172 49.066 19.6833 48.5984 19.0732C48.5674 19.0328 48.5537 18.9818 48.5605 18.9314C48.5672 18.881 48.5938 18.8353 48.6343 18.8044C48.6749 18.7736 48.726 18.76 48.7766 18.7667C48.8272 18.7734 48.873 18.7999 48.904 18.8403C49.3784 19.4593 49.8287 20.1025 50.2424 20.7517C50.2698 20.7946 50.2789 20.8466 50.2678 20.8962C50.2567 20.9458 50.2262 20.989 50.1832 21.0162C50.1523 21.0358 50.1165 21.046 50.0799 21.0458L50.0803 21.0463ZM47.2632 17.3729C47.2365 17.373 47.21 17.3674 47.1855 17.3567C47.1611 17.346 47.1391 17.3303 47.1211 17.3106C46.886 17.0547 46.6459 16.8047 46.4078 16.5672C46.1108 16.2712 45.798 15.9915 45.4708 15.7292C45.4504 15.7137 45.4333 15.6942 45.4206 15.672C45.4078 15.6498 45.3996 15.6253 45.3965 15.5999C45.3934 15.5745 45.3955 15.5487 45.4025 15.5241C45.4096 15.4995 45.4215 15.4766 45.4376 15.4566C45.4537 15.4367 45.4736 15.4201 45.4962 15.408C45.5188 15.3959 45.5436 15.3884 45.5692 15.3859C45.5948 15.3835 45.6205 15.3862 45.645 15.3938C45.6695 15.4015 45.6923 15.414 45.7118 15.4305C46.05 15.7014 46.3731 15.9903 46.6798 16.2961C46.922 16.5374 47.1659 16.7917 47.405 17.052C47.4301 17.0794 47.4467 17.1136 47.4527 17.1502C47.4587 17.1869 47.4539 17.2245 47.4389 17.2585C47.4239 17.2925 47.3993 17.3214 47.3681 17.3417C47.3369 17.362 47.3005 17.3729 47.2632 17.3729ZM43.6492 14.5126C43.6185 14.5125 43.5882 14.5051 43.5609 14.4911C42.8835 14.1434 42.1752 13.8593 41.445 13.6424C41.3967 13.6273 41.3563 13.5939 41.3325 13.5494C41.3088 13.5049 41.3036 13.4528 41.3181 13.4045C41.3326 13.3562 41.3656 13.3155 41.41 13.2913C41.4544 13.267 41.5066 13.2612 41.5552 13.2751C42.3087 13.4987 43.0397 13.7917 43.7386 14.1504C43.777 14.1701 43.8076 14.2021 43.8256 14.2413C43.8435 14.2804 43.8477 14.3244 43.8375 14.3662C43.8272 14.408 43.8032 14.4452 43.7693 14.4717C43.7353 14.4983 43.6933 14.5127 43.6502 14.5126H43.6492ZM32.3276 13.6901C32.2817 13.6901 32.2372 13.6737 32.2024 13.6439C32.1675 13.6141 32.1445 13.5728 32.1375 13.5275C32.1305 13.4822 32.14 13.436 32.1643 13.3971C32.1886 13.3582 32.2261 13.3293 32.2699 13.3155C33.0247 13.0983 33.795 12.9393 34.5742 12.8397C34.5996 12.8353 34.6257 12.836 34.6509 12.8418C34.6761 12.8477 34.6998 12.8585 34.7206 12.8737C34.7415 12.8889 34.7591 12.9081 34.7724 12.9302C34.7856 12.9523 34.7943 12.9769 34.7978 13.0024C34.8013 13.0279 34.7996 13.0538 34.7929 13.0787C34.7861 13.1035 34.7744 13.1268 34.7585 13.147C34.7425 13.1673 34.7226 13.1841 34.7 13.1965C34.6773 13.2089 34.6524 13.2167 34.6267 13.2193C33.8691 13.317 33.1199 13.4716 32.3855 13.6815C32.3668 13.6873 32.3473 13.6902 32.3276 13.6901ZM39.2304 13.1758C39.2221 13.1757 39.2138 13.1752 39.2056 13.1742C38.4465 13.0781 37.6816 13.0356 36.9165 13.0469H36.914C36.863 13.0473 36.8139 13.0274 36.7776 12.9917C36.7413 12.9559 36.7207 12.9073 36.7204 12.8565C36.7201 12.8056 36.74 12.7567 36.7759 12.7205C36.8117 12.6844 36.8605 12.6638 36.9115 12.6635C37.6946 12.6535 38.4774 12.6971 39.2544 12.7939C39.3029 12.8 39.3473 12.8244 39.3784 12.8619C39.4096 12.8995 39.4252 12.9474 39.4221 12.9961C39.4191 13.0447 39.3975 13.0903 39.3619 13.1237C39.3263 13.1571 39.2793 13.1757 39.2304 13.1758Z" fill="#1E1E1E"/>
<path d="M82.7777 50.4195C82.7433 50.4195 82.7095 50.4104 82.6799 50.393C82.6502 50.3756 82.6258 50.3506 82.6092 50.3206C82.2471 49.6261 81.9361 48.9063 81.6785 48.1669C81.6612 48.1191 81.6636 48.0663 81.6853 48.0203C81.7069 47.9743 81.7461 47.9387 81.794 47.9214C81.842 47.9041 81.8949 47.9065 81.9411 47.9281C81.9873 47.9497 82.023 47.9887 82.0404 48.0365C82.2921 48.7564 82.5947 49.4577 82.9458 50.135C82.962 50.1642 82.9702 50.1971 82.9698 50.2304C82.9693 50.2637 82.9602 50.2964 82.9432 50.3251C82.9262 50.3538 82.902 50.3776 82.873 50.3942C82.844 50.4108 82.8111 50.4195 82.7777 50.4195ZM81.1761 46.0822C81.1335 46.0822 81.092 46.0681 81.0583 46.042C81.0246 46.016 81.0006 45.9796 80.9899 45.9384C80.7975 45.1929 80.6335 44.426 80.5052 43.6588C80.4968 43.6086 80.5088 43.5572 80.5384 43.5158C80.5681 43.4745 80.613 43.4465 80.6634 43.4382C80.7137 43.4299 80.7653 43.4418 80.8068 43.4714C80.8483 43.5009 80.8763 43.5457 80.8847 43.5959C81.0112 44.352 81.1719 45.1077 81.3625 45.8426C81.3752 45.8918 81.3678 45.944 81.3419 45.9878C81.316 46.0316 81.2738 46.0634 81.2244 46.0761C81.2086 46.0802 81.1924 46.0822 81.1761 46.0822ZM80.4121 41.5237C80.3636 41.5238 80.3168 41.5057 80.2811 41.473C80.2455 41.4402 80.2235 41.3953 80.2197 41.3471C80.1637 40.6401 80.1353 39.9223 80.1353 39.2137V39.0193C80.1356 38.9685 80.1562 38.9199 80.1925 38.8842C80.2289 38.8485 80.2779 38.8286 80.329 38.829C80.38 38.8293 80.4288 38.8499 80.4646 38.8861C80.5004 38.9223 80.5203 38.9712 80.52 39.022V39.2137C80.52 39.9123 80.5481 40.6199 80.6033 41.3168C80.6073 41.3675 80.591 41.4177 80.5579 41.4563C80.5248 41.495 80.4777 41.519 80.4269 41.5231C80.4223 41.5235 80.4173 41.5237 80.4121 41.5237ZM80.4459 36.9034C80.4398 36.9034 80.4338 36.9034 80.4267 36.9034C80.376 36.8985 80.3292 36.8738 80.2968 36.8347C80.2643 36.7956 80.2488 36.7452 80.2536 36.6946C80.3257 35.9259 80.4324 35.1494 80.5708 34.3872C80.5745 34.3618 80.5834 34.3374 80.5968 34.3154C80.6102 34.2935 80.6279 34.2744 80.6489 34.2595C80.6698 34.2445 80.6936 34.2338 80.7187 34.2282C80.7439 34.2225 80.7699 34.222 80.7953 34.2266C80.8207 34.2311 80.8449 34.2408 80.8664 34.2548C80.888 34.2689 80.9065 34.2872 80.9209 34.3085C80.9352 34.3299 80.9451 34.3539 80.95 34.3791C80.9548 34.4043 80.9545 34.4303 80.9491 34.4554C80.8129 35.2069 80.7077 35.9723 80.6365 36.7303C80.6317 36.7774 80.6096 36.8211 80.5744 36.8529C80.5392 36.8847 80.4934 36.9025 80.4459 36.9026V36.9034ZM81.2686 32.356C81.2517 32.3561 81.2349 32.3539 81.2186 32.3495C81.1942 32.343 81.1713 32.3317 81.1513 32.3164C81.1312 32.301 81.1144 32.2819 81.1018 32.2601C81.0892 32.2383 81.081 32.2142 81.0777 32.1893C81.0744 32.1643 81.0761 32.1389 81.0826 32.1146C81.2825 31.3735 81.5171 30.626 81.7805 29.8927C81.7889 29.8689 81.802 29.847 81.819 29.8283C81.8359 29.8096 81.8564 29.7944 81.8793 29.7836C81.9022 29.7727 81.9269 29.7665 81.9522 29.7653C81.9775 29.764 82.0028 29.7677 82.0266 29.7762C82.0504 29.7847 82.0723 29.7979 82.0911 29.8148C82.1098 29.8318 82.125 29.8522 82.1358 29.8751C82.1466 29.8979 82.1527 29.9226 82.1539 29.9478C82.1551 29.973 82.1513 29.9982 82.1427 30.0219C81.8828 30.7454 81.6512 31.4831 81.4542 32.2141C81.4431 32.2547 81.4189 32.2904 81.3854 32.3159C81.3518 32.3414 81.3108 32.3552 81.2686 32.3552V32.356ZM82.8281 28.0041C82.801 28.0041 82.7742 27.9984 82.7496 27.9872C82.7032 27.9663 82.667 27.9279 82.649 27.8804C82.6309 27.833 82.6325 27.7803 82.6534 27.734C82.8106 27.3843 82.9777 27.0302 83.1503 26.6823C83.3228 26.3343 83.5067 25.9858 83.6966 25.6493C83.7216 25.605 83.7632 25.5724 83.8124 25.5586C83.8615 25.5449 83.9142 25.5512 83.9586 25.5762C84.0031 25.6011 84.0358 25.6426 84.0496 25.6916C84.0634 25.7406 84.057 25.793 84.032 25.8374C83.8454 26.1677 83.665 26.5084 83.4952 26.8519C83.3253 27.1955 83.1599 27.5453 83.0043 27.8908C82.9889 27.9245 82.9641 27.953 82.9328 27.9729C82.9016 27.9929 82.8652 28.0034 82.8281 28.0032V28.0041ZM103.233 26.6928C103.184 26.6927 103.137 26.6741 103.102 26.6408C103.066 26.6076 103.045 26.5621 103.041 26.5137C103.038 26.4652 103.053 26.4173 103.084 26.3797C103.115 26.3421 103.159 26.3176 103.208 26.3111C103.93 26.2152 104.446 25.7829 104.739 25.0251C104.748 25.0011 104.761 24.9791 104.779 24.9603C104.796 24.9415 104.817 24.9264 104.84 24.9158C104.864 24.9052 104.889 24.8994 104.914 24.8986C104.94 24.8979 104.965 24.9023 104.989 24.9115C105.013 24.9207 105.035 24.9345 105.053 24.9523C105.072 24.97 105.087 24.9912 105.097 25.0146C105.107 25.0381 105.112 25.0633 105.112 25.0889C105.113 25.1144 105.108 25.1397 105.098 25.1633C104.755 26.0492 104.119 26.5776 103.258 26.6913C103.25 26.692 103.241 26.6922 103.233 26.6918V26.6928ZM100.996 26.2089C100.967 26.2091 100.938 26.2025 100.912 26.1897C100.205 25.8351 99.5463 25.3904 98.9535 24.8669C98.9345 24.8504 98.9189 24.8303 98.9076 24.8078C98.8963 24.7852 98.8896 24.7607 98.8878 24.7355C98.8861 24.7104 98.8893 24.6852 98.8973 24.6613C98.9053 24.6374 98.918 24.6153 98.9346 24.5963C98.9512 24.5773 98.9714 24.5618 98.994 24.5505C99.0166 24.5393 99.0412 24.5326 99.0664 24.5308C99.0916 24.5291 99.117 24.5323 99.1409 24.5403C99.1649 24.5483 99.187 24.5609 99.2061 24.5774C99.7734 25.0793 100.404 25.5056 101.081 25.8456C101.12 25.8646 101.152 25.8963 101.171 25.9355C101.19 25.9747 101.195 26.0192 101.185 26.0615C101.175 26.1039 101.151 26.1416 101.117 26.1686C101.082 26.1955 101.04 26.2101 100.996 26.2099V26.2089ZM85.1131 23.9879C85.0776 23.9879 85.0429 23.9781 85.0126 23.9597C84.9824 23.9412 84.9579 23.9148 84.9418 23.8833C84.9257 23.8518 84.9186 23.8165 84.9214 23.7813C84.9242 23.7461 84.9366 23.7123 84.9575 23.6837C85.4159 23.0528 85.9129 22.4506 86.4455 21.8804C86.4806 21.8445 86.5284 21.8237 86.5787 21.8225C86.629 21.8212 86.6777 21.8397 86.7145 21.8738C86.7513 21.908 86.7732 21.9552 86.7756 22.0053C86.7779 22.0553 86.7604 22.1043 86.7269 22.1417C86.2051 22.7005 85.7182 23.2906 85.2689 23.9088C85.2509 23.9331 85.2275 23.9529 85.2004 23.9665C85.1733 23.9801 85.1434 23.9871 85.1131 23.987V23.9879ZM97.4887 23.2322C97.4594 23.2322 97.4305 23.2256 97.4042 23.2127C97.3778 23.1999 97.3548 23.1813 97.3368 23.1582C96.8525 22.5399 96.4291 21.8767 96.0722 21.1776C96.0599 21.1551 96.0523 21.1303 96.0498 21.1047C96.0473 21.0792 96.05 21.0534 96.0577 21.0289C96.0653 21.0044 96.0779 20.9817 96.0945 20.9621C96.1112 20.9425 96.1316 20.9265 96.1546 20.9149C96.1776 20.9033 96.2027 20.8965 96.2284 20.8948C96.2541 20.8931 96.2799 20.8965 96.3043 20.905C96.3286 20.9134 96.351 20.9266 96.3701 20.9438C96.3892 20.961 96.4047 20.9818 96.4156 21.0051C96.7612 21.6822 97.1713 22.3245 97.6403 22.9234C97.6625 22.9517 97.6762 22.9856 97.68 23.0213C97.6837 23.057 97.6773 23.0931 97.6615 23.1253C97.6457 23.1576 97.6212 23.1848 97.5906 23.2038C97.5601 23.2228 97.5248 23.2329 97.4887 23.233V23.2322ZM105.197 23.0071C105.148 23.0072 105.101 22.9886 105.065 22.955C105.029 22.9215 105.008 22.8756 105.005 22.8267C104.966 22.0793 104.782 21.3466 104.463 20.6692C104.45 20.6463 104.442 20.621 104.439 20.5949C104.436 20.5688 104.439 20.5423 104.447 20.5173C104.455 20.4922 104.468 20.469 104.485 20.4492C104.502 20.4293 104.523 20.4132 104.547 20.4019C104.571 20.3906 104.597 20.3842 104.623 20.3833C104.649 20.3823 104.676 20.3868 104.7 20.3963C104.725 20.4059 104.747 20.4204 104.766 20.439C104.785 20.4575 104.799 20.4797 104.809 20.5041C105.15 21.2257 105.347 22.0065 105.389 22.803C105.392 22.8537 105.375 22.9036 105.341 22.9416C105.307 22.9796 105.259 23.0027 105.208 23.0058L105.197 23.0071ZM88.2754 20.6192C88.2357 20.6192 88.197 20.6071 88.1645 20.5843C88.1321 20.5616 88.1075 20.5294 88.0941 20.4922C88.0807 20.455 88.0791 20.4145 88.0897 20.3764C88.1003 20.3383 88.1224 20.3043 88.1531 20.2793C88.7574 19.7833 89.3953 19.3297 90.0624 18.9215C90.0839 18.9063 90.1083 18.8957 90.134 18.8902C90.1598 18.8848 90.1864 18.8847 90.2123 18.8899C90.2381 18.8951 90.2625 18.9056 90.2841 18.9207C90.3057 18.9357 90.324 18.955 90.3378 18.9774C90.3516 18.9997 90.3606 19.0247 90.3643 19.0507C90.3681 19.0767 90.3664 19.1032 90.3594 19.1285C90.3524 19.1538 90.3403 19.1774 90.3238 19.1979C90.3073 19.2184 90.2867 19.2352 90.2634 19.2475C89.6115 19.6463 88.988 20.0897 88.3976 20.5745C88.3632 20.6029 88.32 20.6183 88.2754 20.6182V20.6192ZM95.4288 19.1213C95.3858 19.1213 95.3441 19.1069 95.3103 19.0805C95.2765 19.0541 95.2525 19.0172 95.2422 18.9756C95.0752 18.3114 94.9894 17.6294 94.9869 16.9446C94.9869 16.8398 94.9891 16.7349 94.9933 16.6298C94.994 16.6046 94.9997 16.5797 95.0102 16.5567C95.0207 16.5337 95.0357 16.513 95.0543 16.4959C95.0729 16.4787 95.0948 16.4655 95.1187 16.4569C95.1425 16.4483 95.1678 16.4446 95.1932 16.446C95.2441 16.448 95.2922 16.4701 95.3268 16.5075C95.3614 16.5448 95.3797 16.5944 95.3776 16.6452C95.3738 16.7451 95.3718 16.8449 95.3717 16.9446C95.3742 17.5984 95.4561 18.2496 95.6158 18.8838C95.628 18.9332 95.62 18.9853 95.5936 19.0288C95.5672 19.0723 95.5245 19.1036 95.475 19.1158C95.4598 19.1192 95.4443 19.1208 95.4288 19.1204V19.1213ZM103.238 18.9538C103.192 18.9537 103.147 18.9369 103.112 18.9062C102.541 18.4152 101.893 18.0224 101.192 17.744C101.169 17.7345 101.148 17.7205 101.13 17.7028C101.112 17.6851 101.098 17.664 101.088 17.6408C101.078 17.6176 101.073 17.5927 101.073 17.5675C101.073 17.5423 101.077 17.5174 101.087 17.4941C101.097 17.4707 101.111 17.4495 101.128 17.4316C101.146 17.4137 101.167 17.3995 101.191 17.3898C101.214 17.38 101.239 17.3749 101.264 17.3748C101.289 17.3747 101.314 17.3795 101.338 17.389C102.078 17.6834 102.763 18.0987 103.365 18.6179C103.395 18.6436 103.416 18.6776 103.425 18.7155C103.435 18.7533 103.432 18.7931 103.419 18.8296C103.405 18.8661 103.38 18.8976 103.348 18.9197C103.316 18.9419 103.278 18.9538 103.238 18.9538ZM92.2228 18.2162C92.1784 18.2162 92.1355 18.201 92.1011 18.173C92.0668 18.1451 92.0432 18.1062 92.0343 18.0629C92.0254 18.0196 92.0318 17.9746 92.0524 17.9354C92.073 17.8963 92.1066 17.8655 92.1474 17.8481C92.8685 17.541 93.6128 17.291 94.3733 17.1005C94.4225 17.0891 94.4741 17.0975 94.5172 17.1237C94.5602 17.1499 94.5912 17.192 94.6034 17.2407C94.6156 17.2895 94.6081 17.3411 94.5826 17.3845C94.557 17.4278 94.5153 17.4594 94.4666 17.4724C93.7257 17.6581 93.0006 17.9017 92.298 18.2009C92.2743 18.2106 92.2488 18.2155 92.2232 18.2153L92.2228 18.2162ZM99.0251 17.177C99.0165 17.177 99.0079 17.1764 98.9993 17.1752C98.5223 17.1123 98.0417 17.0811 97.5605 17.0817C97.2812 17.0817 97.0048 17.0913 96.7224 17.1112C96.6967 17.1139 96.6708 17.1113 96.6461 17.1038C96.6215 17.0962 96.5986 17.0838 96.5788 17.0673C96.5591 17.0508 96.5429 17.0304 96.5312 17.0075C96.5195 16.9846 96.5125 16.9596 96.5107 16.9339C96.5089 16.9083 96.5123 16.8825 96.5207 16.8582C96.529 16.8339 96.5422 16.8115 96.5595 16.7924C96.5767 16.7733 96.5976 16.7578 96.621 16.7469C96.6444 16.736 96.6697 16.7299 96.6955 16.7289C96.9867 16.708 97.2725 16.6954 97.5611 16.6983C98.0593 16.6977 98.557 16.7301 99.0509 16.7953C99.0992 16.8018 99.1432 16.8263 99.1741 16.8639C99.2049 16.9016 99.2203 16.9495 99.2171 16.9979C99.2138 17.0464 99.1923 17.0919 99.1567 17.1251C99.1211 17.1583 99.0742 17.1769 99.0255 17.177H99.0251ZM95.6492 14.5724C95.618 14.5723 95.5873 14.5648 95.5597 14.5503C95.532 14.5358 95.5084 14.5148 95.4907 14.4892C95.4731 14.4635 95.4619 14.434 95.4583 14.4031C95.4546 14.3722 95.4586 14.3409 95.4698 14.3118C95.5561 14.0873 95.6558 13.8626 95.7658 13.6441C96.0093 13.1606 96.2784 12.6903 96.5718 12.2352C96.5995 12.1928 96.643 12.163 96.6927 12.1524C96.7424 12.1418 96.7942 12.1513 96.837 12.1787C96.8797 12.2061 96.9098 12.2492 96.9208 12.2987C96.9317 12.3481 96.9225 12.3999 96.8953 12.4426C96.6093 12.8862 96.347 13.3446 96.1095 13.8159C96.0053 14.0233 95.9108 14.2365 95.8289 14.4485C95.8151 14.4849 95.7905 14.5162 95.7584 14.5383C95.7263 14.5604 95.6882 14.5723 95.6492 14.5724ZM98.1272 10.6835C98.0903 10.6835 98.0541 10.6729 98.0231 10.653C97.992 10.6331 97.9674 10.6047 97.9521 10.5712C97.9368 10.5377 97.9315 10.5005 97.9368 10.4641C97.9421 10.4277 97.9579 10.3935 97.9821 10.3658C98.4973 9.77863 99.0514 9.22659 99.6408 8.71344C99.6794 8.67995 99.7297 8.6631 99.7807 8.66659C99.8317 8.67008 99.8792 8.69362 99.9128 8.73203C99.9464 8.77044 99.9633 8.82059 99.9598 8.87142C99.9563 8.92226 99.9327 8.96963 99.8942 9.00311C99.3176 9.50465 98.7757 10.0445 98.2722 10.6189C98.2541 10.6393 98.2317 10.6556 98.2067 10.6668C98.1817 10.6779 98.1546 10.6836 98.1272 10.6835ZM101.607 7.64004C101.566 7.64005 101.526 7.62689 101.493 7.60251C101.459 7.57813 101.435 7.5438 101.423 7.50457C101.411 7.46534 101.412 7.42329 101.425 7.38459C101.439 7.3459 101.465 7.31259 101.499 7.28959C102.147 6.85396 102.819 6.45563 103.513 6.09656C103.535 6.08415 103.56 6.07634 103.585 6.0736C103.611 6.07086 103.637 6.07325 103.661 6.08062C103.686 6.08798 103.709 6.10019 103.729 6.1165C103.748 6.13282 103.765 6.15292 103.776 6.17561C103.788 6.19831 103.796 6.22315 103.798 6.24866C103.8 6.27417 103.797 6.29984 103.789 6.32415C103.781 6.34846 103.768 6.37092 103.751 6.39021C103.734 6.4095 103.713 6.42523 103.69 6.43647C103.01 6.78898 102.35 7.17988 101.714 7.60725C101.683 7.62861 101.645 7.64003 101.607 7.64004ZM105.716 5.50302C105.671 5.50304 105.627 5.48743 105.593 5.45889C105.558 5.43034 105.535 5.39066 105.527 5.34671C105.518 5.30276 105.526 5.2573 105.547 5.2182C105.569 5.17911 105.604 5.14884 105.646 5.13263C106.373 4.84994 107.115 4.60524 107.867 4.39952C107.917 4.38612 107.969 4.39277 108.013 4.41799C108.058 4.44321 108.09 4.48494 108.104 4.53401C108.117 4.58307 108.11 4.63545 108.085 4.67962C108.06 4.72379 108.018 4.75613 107.969 4.76953C107.229 4.9715 106.5 5.21198 105.785 5.48998C105.763 5.49861 105.739 5.50303 105.716 5.50302ZM116.983 4.45761C116.967 4.45761 116.95 4.45561 116.935 4.45167C116.233 4.27414 115.518 4.1536 114.796 4.09125C114.771 4.08898 114.746 4.0818 114.724 4.07011C114.702 4.05842 114.682 4.04245 114.666 4.02312C114.649 4.00379 114.637 3.98147 114.63 3.95743C114.622 3.9334 114.62 3.90812 114.622 3.88305C114.624 3.85797 114.631 3.83359 114.643 3.81129C114.655 3.78899 114.671 3.76921 114.69 3.75308C114.71 3.73695 114.732 3.72479 114.756 3.71729C114.78 3.70979 114.806 3.70709 114.831 3.70936C115.573 3.77373 116.309 3.89772 117.031 4.08013C117.076 4.09168 117.116 4.11938 117.142 4.15802C117.169 4.19666 117.18 4.24358 117.174 4.28995C117.168 4.33633 117.146 4.37896 117.11 4.40984C117.075 4.44071 117.03 4.4577 116.983 4.45761ZM110.186 4.28507C110.138 4.28534 110.091 4.26732 110.055 4.23462C110.019 4.20192 109.997 4.15695 109.993 4.10874C109.989 4.06053 110.004 4.01263 110.034 3.97465C110.064 3.93667 110.107 3.91141 110.155 3.90395C110.927 3.77885 111.705 3.6982 112.485 3.66239C112.511 3.66102 112.536 3.66469 112.56 3.67318C112.584 3.68168 112.606 3.69482 112.624 3.71185C112.643 3.72887 112.658 3.74944 112.669 3.77235C112.679 3.79526 112.685 3.82006 112.686 3.84528C112.687 3.87043 112.684 3.89556 112.675 3.91923C112.666 3.9429 112.653 3.96465 112.636 3.98323C112.619 4.00182 112.599 4.01688 112.576 4.02755C112.553 4.03822 112.528 4.0443 112.503 4.04543C111.737 4.08053 110.974 4.15971 110.217 4.28258C110.207 4.28392 110.196 4.28443 110.186 4.28411V4.28507Z" fill="#1E1E1E"/>
<path d="M106.336 31.3097L33.2392 51.0435C29.8681 51.9536 27.873 55.4242 28.7831 58.7953L41.115 104.474C42.0251 107.845 45.4957 109.84 48.8668 108.93L121.963 89.196C125.334 88.2859 127.329 84.8153 126.419 81.4442L114.087 35.7657C113.177 32.3946 109.707 30.3996 106.336 31.3097Z" fill="url(#paint1_linear_10601_77628)"/>
<path d="M112.245 39.9217L37.7523 53.4594C34.3168 54.0837 32.0379 57.3749 32.6622 60.8104L41.122 107.362C41.7464 110.797 45.0375 113.076 48.4731 112.452L122.966 98.9142C126.402 98.2899 128.681 94.9987 128.056 91.5632L119.597 45.0118C118.972 41.5762 115.681 39.2973 112.245 39.9217Z" fill="url(#paint2_linear_10601_77628)"/>
<path opacity="0.26" d="M112.245 39.9217L37.7523 53.4594C34.3168 54.0837 32.0379 57.3749 32.6622 60.8104L41.122 107.362C41.7464 110.797 45.0375 113.076 48.4731 112.452L122.966 98.9142C126.402 98.2899 128.681 94.9987 128.056 91.5632L119.597 45.0118C118.972 41.5762 115.681 39.2973 112.245 39.9217Z" fill="white"/>
<path opacity="0.34" d="M121.804 57.1662L34.8701 72.9648L36.8242 83.7174L123.759 67.9188L121.804 57.1662Z" fill="white"/>
<path d="M106.942 95.6271C110.857 95.6271 114.03 92.4533 114.03 88.5382C114.03 84.6231 110.857 81.4492 106.942 81.4492C103.026 81.4492 99.8525 84.6231 99.8525 88.5382C99.8525 92.4533 103.026 95.6271 106.942 95.6271Z" fill="#F3F5FD"/>
<path d="M113.917 94.3576C117.832 94.3576 121.006 91.1838 121.006 87.2686C121.006 83.3535 117.832 80.1797 113.917 80.1797C110.002 80.1797 106.828 83.3535 106.828 87.2686C106.828 91.1838 110.002 94.3576 113.917 94.3576Z" fill="url(#paint3_linear_10601_77628)"/>
<path opacity="0.8" d="M111.133 50.243L98.3672 52.8848L98.7787 54.8735L111.545 52.2317L111.133 50.243Z" fill="white"/>
<path opacity="0.8" d="M48.5694 99.9692L58.7212 97.7832L58.9446 98.8208L48.7929 101.007L48.5694 99.9692Z" fill="white"/>
<path opacity="0.8" d="M48.9982 101.952L62.1011 99.1309L62.3245 100.168L49.2217 102.99L48.9982 101.952Z" fill="white"/>
<path opacity="0.8" d="M54.23 60.8501C54.1505 60.3575 53.9747 59.8854 53.7126 59.4608C53.4505 59.0361 53.1073 58.6674 52.7026 58.3755C52.2978 58.0837 51.8395 57.8745 51.3539 57.7599C50.8682 57.6453 50.3648 57.6275 49.8723 57.7077L44.2645 58.743L44.194 58.7491L44.0273 58.7861L43.9251 58.8052C43.0081 59.0369 42.2156 59.613 41.7122 60.4138C41.2089 61.2145 41.0333 62.1784 41.222 63.1052C41.4108 64.032 41.9493 64.8505 42.7257 65.3907C43.5021 65.9308 44.4568 66.1511 45.3914 66.0058L50.6631 65.2388C50.8122 65.2323 50.9609 65.2178 51.1085 65.1955C51.2179 65.1778 51.3263 65.1544 51.4332 65.1254C52.3481 64.889 53.1418 64.3198 53.6591 63.529C54.1764 62.7383 54.3799 61.783 54.23 60.8501Z" fill="white"/>
<defs>
<linearGradient id="paint0_linear_10601_77628" x1="112.943" y1="141.316" x2="122.922" y2="5.33932" gradientUnits="userSpaceOnUse">
<stop stop-color="#006DCA"/>
<stop offset="1" stop-color="#1E96FC"/>
</linearGradient>
<linearGradient id="paint1_linear_10601_77628" x1="103.329" y1="32.1213" x2="44.2879" y2="104.636" gradientUnits="userSpaceOnUse">
<stop stop-color="#00241B"/>
<stop offset="1"/>
</linearGradient>
<linearGradient id="paint2_linear_10601_77628" x1="107.916" y1="40.7085" x2="37.5681" y2="108.738" gradientUnits="userSpaceOnUse">
<stop stop-color="#006DCA"/>
<stop offset="1" stop-color="#1E96FC"/>
</linearGradient>
<linearGradient id="paint3_linear_10601_77628" x1="119.285" y1="80.1797" x2="103.62" y2="87.28" gradientUnits="userSpaceOnUse">
<stop stop-color="#006DCA"/>
<stop offset="1" stop-color="#1E96FC"/>
</linearGradient>
</defs>
</svg>
