<svg width="60" height="22" viewBox="0 0 60 22" fill="none" xmlns="http://www.w3.org/2000/svg">
<rect width="22" height="22" rx="11" fill="#D92121"/>
<path d="M15.1 4H17.98L12.84 18H9.58L4.46 4H7.34L11.22 15.24L15.1 4Z" fill="#FEFEFE"/>
<path d="M24.78 18.14C23.78 18.14 22.9 17.92 22.14 17.48C21.38 17.04 20.7867 16.4267 20.36 15.64C19.9467 14.8533 19.74 13.9467 19.74 12.92C19.74 11.9333 19.9467 11.06 20.36 10.3C20.7867 9.54 21.3667 8.94667 22.1 8.52C22.8333 8.08 23.6733 7.86 24.62 7.86C25.58 7.86 26.4267 8.06667 27.16 8.48C27.8933 8.89333 28.46 9.47333 28.86 10.22C29.2733 10.9533 29.48 11.8133 29.48 12.8C29.48 12.9467 29.4667 13.1133 29.44 13.3C29.4267 13.4733 29.4067 13.66 29.38 13.86H22.5C22.5533 14.2867 22.6867 14.6533 22.9 14.96C23.1267 15.2533 23.4 15.4867 23.72 15.66C24.0533 15.82 24.4267 15.9 24.84 15.9C25.3333 15.9 25.7733 15.8 26.16 15.6C26.56 15.4 26.8467 15.1267 27.02 14.78L29.28 15.46C28.88 16.3133 28.2867 16.9733 27.5 17.44C26.7133 17.9067 25.8067 18.14 24.78 18.14ZM26.68 12C26.6667 11.6267 26.5667 11.2933 26.38 11C26.1933 10.6933 25.9467 10.46 25.64 10.3C25.3333 10.1267 24.9933 10.04 24.62 10.04C24.2867 10.04 23.9733 10.1267 23.68 10.3C23.3867 10.46 23.1333 10.6867 22.92 10.98C22.72 11.2733 22.5867 11.6133 22.52 12H26.68ZM31.4314 8H33.7514L33.9314 9.28C34.2114 8.93333 34.5247 8.65333 34.8714 8.44C35.2314 8.21333 35.6247 8.06 36.0514 7.98C36.4781 7.88667 36.9247 7.89333 37.3914 8V10.4C37.0314 10.28 36.6514 10.2467 36.2514 10.3C35.8647 10.3533 35.4981 10.4933 35.1514 10.72C34.8181 10.9467 34.5381 11.2733 34.3114 11.7C34.0981 12.1133 33.9914 12.64 33.9914 13.28V18H31.4314V8ZM40.9691 8L43.3491 15.12L45.7491 8H48.4891L44.7691 18H41.9091L38.2091 8H40.9691ZM54.4089 18.14C53.4089 18.14 52.5289 17.92 51.7689 17.48C51.0089 17.04 50.4156 16.4267 49.9889 15.64C49.5756 14.8533 49.3689 13.9467 49.3689 12.92C49.3689 11.9333 49.5756 11.06 49.9889 10.3C50.4156 9.54 50.9956 8.94667 51.7289 8.52C52.4622 8.08 53.3022 7.86 54.2489 7.86C55.2089 7.86 56.0556 8.06667 56.7889 8.48C57.5222 8.89333 58.0889 9.47333 58.4889 10.22C58.9022 10.9533 59.1089 11.8133 59.1089 12.8C59.1089 12.9467 59.0956 13.1133 59.0689 13.3C59.0556 13.4733 59.0356 13.66 59.0089 13.86H52.1289C52.1822 14.2867 52.3156 14.6533 52.5289 14.96C52.7556 15.2533 53.0289 15.4867 53.3489 15.66C53.6822 15.82 54.0556 15.9 54.4689 15.9C54.9622 15.9 55.4022 15.8 55.7889 15.6C56.1889 15.4 56.4756 15.1267 56.6489 14.78L58.9089 15.46C58.5089 16.3133 57.9156 16.9733 57.1289 17.44C56.3422 17.9067 55.4356 18.14 54.4089 18.14ZM56.3089 12C56.2956 11.6267 56.1956 11.2933 56.0089 11C55.8222 10.6933 55.5756 10.46 55.2689 10.3C54.9622 10.1267 54.6222 10.04 54.2489 10.04C53.9156 10.04 53.6022 10.1267 53.3089 10.3C53.0156 10.46 52.7622 10.6867 52.5489 10.98C52.3489 11.2733 52.2156 11.6133 52.1489 12H56.3089Z" fill="#FEFEFE"/>
</svg>
