<svg width="35" height="32" viewBox="0 0 35 32" fill="none" xmlns="http://www.w3.org/2000/svg">
<g clip-path="url(#clip0_10886_1697)">
<path d="M6.68112 26.866V25.079C6.68112 24.3938 6.27286 23.9471 5.57307 23.9471C5.22324 23.9471 4.84419 24.0663 4.58175 24.4535C4.37775 24.1258 4.08623 23.9471 3.64888 23.9471C3.35722 23.9471 3.06583 24.0364 2.83248 24.3641V24.0067H2.22021V26.866H2.83248V25.2874C2.83248 24.7811 3.09492 24.5428 3.50318 24.5428C3.91118 24.5428 4.11545 24.8109 4.11545 25.2874V26.866H4.72772V25.2874C4.72772 24.7811 5.01911 24.5428 5.39815 24.5428C5.80642 24.5428 6.01042 24.8109 6.01042 25.2874V26.866H6.68112ZM15.7484 24.0067H14.7572V23.143H14.1449V24.0067H13.591V24.5725H14.1448V25.8831C14.1448 26.5385 14.4072 26.9255 15.107 26.9255C15.3694 26.9255 15.6608 26.8363 15.8651 26.7171L15.6901 26.1809C15.5151 26.3001 15.3111 26.3299 15.1653 26.3299C14.8738 26.3299 14.7572 26.1512 14.7572 25.8533V24.5725H15.7484V24.0067ZM20.9381 23.947C20.5883 23.947 20.3551 24.1258 20.2093 24.3641V24.0067H19.597V26.866H20.2093V25.2576C20.2093 24.7811 20.4133 24.513 20.7923 24.513C20.9089 24.513 21.0548 24.5429 21.1714 24.5726L21.3463 23.977C21.2297 23.9471 21.0548 23.9471 20.9381 23.9471M13.0953 24.2451C12.8036 24.0365 12.3955 23.9473 11.9582 23.9473C11.2585 23.9473 10.7921 24.3046 10.7921 24.8706C10.7921 25.3472 11.1419 25.6152 11.7542 25.7046L12.0457 25.7344C12.3664 25.7939 12.5413 25.8833 12.5413 26.0322C12.5413 26.2406 12.3081 26.3896 11.8999 26.3896C11.4917 26.3896 11.171 26.2406 10.9668 26.0918L10.6753 26.5683C10.9961 26.8066 11.4334 26.9257 11.8706 26.9257C12.687 26.9257 13.1536 26.5386 13.1536 26.0024C13.1536 25.496 12.7746 25.2279 12.1914 25.1387L11.8999 25.1088C11.6374 25.079 11.4334 25.0195 11.4334 24.8408C11.4334 24.6323 11.6374 24.5132 11.9582 24.5132C12.3081 24.5132 12.6579 24.662 12.8329 24.7514L13.0953 24.2451ZM29.3642 23.9473C29.0142 23.9473 28.781 24.126 28.6352 24.3642V24.0068H28.0229V26.8661H28.6352V25.2578C28.6352 24.7813 28.8393 24.5132 29.2182 24.5132C29.3349 24.5132 29.4808 24.543 29.5974 24.5727L29.7723 23.9771C29.6557 23.9473 29.4808 23.9473 29.3642 23.9473ZM21.5504 25.4365C21.5504 26.3002 22.1335 26.9257 23.0374 26.9257C23.4455 26.9257 23.737 26.8364 24.0286 26.5982L23.737 26.0918C23.5038 26.2705 23.2706 26.3598 23.0082 26.3598C22.5125 26.3598 22.1627 26.0024 22.1627 25.4365C22.1627 24.9004 22.5125 24.5429 23.0082 24.5132C23.2706 24.5132 23.5038 24.6025 23.737 24.7813L24.0286 24.2749C23.737 24.0365 23.4455 23.9473 23.0374 23.9473C22.1335 23.9473 21.5504 24.5727 21.5504 25.4365ZM27.2066 25.4365V24.0068H26.5944V24.3642C26.3902 24.0962 26.0987 23.9473 25.7197 23.9473C24.9325 23.9473 24.3202 24.5727 24.3202 25.4365C24.3202 26.3002 24.9325 26.9257 25.7197 26.9257C26.1278 26.9257 26.4195 26.7768 26.5944 26.5087V26.8661H27.2066V25.4365ZM24.9616 25.4365C24.9616 24.9301 25.2823 24.5132 25.8071 24.5132C26.3027 24.5132 26.6527 24.9004 26.6527 25.4365C26.6527 25.9428 26.3027 26.3598 25.8071 26.3598C25.2823 26.3299 24.9616 25.9428 24.9616 25.4365ZM17.6436 23.9473C16.8272 23.9473 16.244 24.5429 16.244 25.4365C16.244 26.3301 16.8271 26.9257 17.6727 26.9257C18.0808 26.9257 18.4891 26.8066 18.8098 26.5386L18.5182 26.0918C18.285 26.2705 17.9934 26.3896 17.7019 26.3896C17.3229 26.3896 16.9438 26.2109 16.8563 25.7044H18.9264V25.4663C18.9557 24.5429 18.4309 23.9473 17.6436 23.9473ZM17.6435 24.4833C18.0224 24.4833 18.285 24.7217 18.3431 25.1685H16.8854C16.9437 24.7813 17.2061 24.4833 17.6435 24.4833ZM32.8335 25.4365V22.875H32.2212V24.3642C32.0171 24.0962 31.7256 23.9473 31.3465 23.9473C30.5593 23.9473 29.9471 24.5727 29.9471 25.4365C29.9471 26.3002 30.5593 26.9257 31.3465 26.9257C31.7548 26.9257 32.0463 26.7768 32.2212 26.5087V26.8661H32.8335V25.4365ZM30.5886 25.4365C30.5886 24.9301 30.9092 24.5132 31.434 24.5132C31.9297 24.5132 32.2795 24.9004 32.2795 25.4365C32.2795 25.9428 31.9297 26.3598 31.434 26.3598C30.9092 26.3299 30.5886 25.9428 30.5886 25.4365ZM10.1212 25.4365V24.0068H9.50897V24.3642C9.30483 24.0962 9.01331 23.9473 8.63426 23.9473C7.84708 23.9473 7.23482 24.5727 7.23482 25.4365C7.23482 26.3002 7.84708 26.9257 8.63426 26.9257C9.04253 26.9257 9.33405 26.7768 9.50897 26.5087V26.8661H10.1212V25.4365ZM7.84708 25.4365C7.84708 24.9301 8.16782 24.5132 8.69257 24.5132C9.18822 24.5132 9.53818 24.9004 9.53818 25.4365C9.53818 25.9428 9.18822 26.3598 8.69257 26.3598C8.16782 26.3299 7.84708 25.9428 7.84708 25.4365Z" fill="black"/>
<path d="M12.8911 2.29297H22.0751V19.1511H12.8911V2.29297Z" fill="#FF5F00"/>
<path d="M13.4743 10.7225C13.4743 7.29733 15.0487 4.25922 17.4685 2.29337C15.6902 0.863729 13.4452 0 10.9962 0C5.19399 0 0.5 4.79528 0.5 10.7225C0.5 16.6496 5.19399 21.4451 10.996 21.4451C13.4451 21.4451 15.69 20.5813 17.4685 19.1515C15.0487 17.2156 13.4743 14.1477 13.4743 10.7225Z" fill="#EB001B"/>
<path d="M34.4663 10.7225C34.4663 16.6496 29.7723 21.4451 23.9703 21.4451C21.5212 21.4451 19.2763 20.5813 17.4978 19.1515C19.9469 17.1858 21.4921 14.1477 21.4921 10.7225C21.4921 7.29733 19.9176 4.25922 17.4978 2.29337C19.2762 0.863729 21.5212 0 23.9703 0C29.7723 0 34.4663 4.82513 34.4663 10.7225Z" fill="#F79E1B"/>
</g>
<path d="M0.99 30H0.51V25.8H1.038L2.598 29.34L4.152 25.8H4.674V30H4.194V26.748L2.766 30H2.424L0.99 26.748V30ZM7.52555 30L7.48955 29.46C7.40555 29.644 7.28155 29.788 7.11755 29.892C6.95355 29.992 6.74555 30.042 6.49355 30.042C6.27755 30.042 6.09355 30.008 5.94155 29.94C5.78955 29.872 5.67155 29.776 5.58755 29.652C5.50755 29.524 5.46755 29.374 5.46755 29.202C5.46755 28.95 5.56155 28.744 5.74955 28.584C5.93755 28.42 6.20955 28.32 6.56555 28.284L7.48955 28.182V27.942C7.48955 27.774 7.42755 27.64 7.30355 27.54C7.17955 27.436 7.01155 27.384 6.79955 27.384C6.59155 27.384 6.41755 27.432 6.27755 27.528C6.14155 27.624 6.04755 27.762 5.99555 27.942L5.58755 27.798C5.66755 27.534 5.81355 27.328 6.02555 27.18C6.24155 27.032 6.50355 26.958 6.81155 26.958C7.16755 26.958 7.44355 27.05 7.63955 27.234C7.83955 27.414 7.93955 27.66 7.93955 27.972V30H7.52555ZM7.48955 28.566L6.55955 28.674C6.35955 28.698 6.20755 28.754 6.10355 28.842C5.99955 28.926 5.94755 29.038 5.94755 29.178C5.94755 29.318 5.99755 29.43 6.09755 29.514C6.20155 29.598 6.34955 29.64 6.54155 29.64C6.76155 29.64 6.94155 29.596 7.08155 29.508C7.22155 29.42 7.32355 29.302 7.38755 29.154C7.45555 29.002 7.48955 28.838 7.48955 28.662V28.566ZM9.06347 29.082C9.08747 29.202 9.13147 29.302 9.19547 29.382C9.25947 29.458 9.34147 29.516 9.44147 29.556C9.54547 29.596 9.66547 29.616 9.80147 29.616C10.0135 29.616 10.1735 29.576 10.2815 29.496C10.3935 29.412 10.4495 29.308 10.4495 29.184C10.4495 29.08 10.4155 28.996 10.3475 28.932C10.2835 28.868 10.1975 28.816 10.0895 28.776C9.98147 28.732 9.86147 28.694 9.72947 28.662C9.62547 28.638 9.51347 28.61 9.39347 28.578C9.27347 28.542 9.15947 28.494 9.05147 28.434C8.94347 28.374 8.85547 28.296 8.78747 28.2C8.71947 28.104 8.68547 27.978 8.68547 27.822C8.68547 27.65 8.73147 27.5 8.82347 27.372C8.91947 27.24 9.04947 27.138 9.21347 27.066C9.38147 26.994 9.57347 26.958 9.78947 26.958C10.0375 26.958 10.2575 27.012 10.4495 27.12C10.6455 27.228 10.7815 27.396 10.8575 27.624L10.4375 27.768C10.4095 27.664 10.3575 27.584 10.2815 27.528C10.2095 27.472 10.1275 27.434 10.0355 27.414C9.94747 27.394 9.85947 27.384 9.77147 27.384C9.59147 27.384 9.44547 27.42 9.33347 27.492C9.22547 27.56 9.17147 27.664 9.17147 27.804C9.17147 27.88 9.18947 27.944 9.22547 27.996C9.26147 28.044 9.31147 28.084 9.37547 28.116C9.43947 28.148 9.51547 28.176 9.60347 28.2C9.69147 28.22 9.78747 28.244 9.89147 28.272C10.0075 28.3 10.1255 28.336 10.2455 28.38C10.3655 28.42 10.4775 28.474 10.5815 28.542C10.6855 28.606 10.7695 28.69 10.8335 28.794C10.9015 28.894 10.9355 29.02 10.9355 29.172C10.9355 29.348 10.8875 29.502 10.7915 29.634C10.6955 29.762 10.5615 29.862 10.3895 29.934C10.2215 30.006 10.0255 30.042 9.80147 30.042C9.49347 30.042 9.23747 29.974 9.03347 29.838C8.83347 29.698 8.69947 29.494 8.63147 29.226L9.06347 29.082ZM11.8571 27V26.16H12.3071V27H13.1051V27.42H12.3071V29.034C12.3071 29.218 12.3451 29.352 12.4211 29.436C12.5011 29.52 12.6011 29.57 12.7211 29.586C12.8451 29.602 12.9731 29.602 13.1051 29.586V29.976C12.9491 30.012 12.7951 30.022 12.6431 30.006C12.4951 29.99 12.3611 29.946 12.2411 29.874C12.1251 29.798 12.0311 29.692 11.9591 29.556C11.8911 29.42 11.8571 29.246 11.8571 29.034V27.42H11.4071V27H11.8571ZM15.0345 30.042C14.7545 30.042 14.5045 29.974 14.2845 29.838C14.0685 29.702 13.8985 29.516 13.7745 29.28C13.6505 29.044 13.5885 28.774 13.5885 28.47C13.5885 28.178 13.6505 27.918 13.7745 27.69C13.8985 27.462 14.0685 27.284 14.2845 27.156C14.5005 27.024 14.7465 26.958 15.0225 26.958C15.2945 26.958 15.5365 27.018 15.7485 27.138C15.9645 27.258 16.1325 27.424 16.2525 27.636C16.3725 27.848 16.4285 28.09 16.4205 28.362C16.4205 28.406 16.4185 28.452 16.4145 28.5C16.4105 28.548 16.4065 28.6 16.4025 28.656H14.0805C14.0885 28.844 14.1345 29.01 14.2185 29.154C14.3025 29.298 14.4125 29.412 14.5485 29.496C14.6885 29.576 14.8465 29.616 15.0225 29.616C15.2545 29.616 15.4505 29.572 15.6105 29.484C15.7745 29.396 15.8925 29.27 15.9645 29.106L16.3545 29.262C16.2345 29.514 16.0605 29.708 15.8325 29.844C15.6045 29.976 15.3385 30.042 15.0345 30.042ZM15.9285 28.266C15.9325 28.094 15.8945 27.942 15.8145 27.81C15.7385 27.678 15.6305 27.574 15.4905 27.498C15.3505 27.422 15.1885 27.384 15.0045 27.384C14.8445 27.384 14.6985 27.422 14.5665 27.498C14.4345 27.574 14.3245 27.68 14.2365 27.816C14.1525 27.948 14.1025 28.098 14.0865 28.266H15.9285ZM17.1612 27H17.5752L17.5992 27.438C17.6792 27.33 17.7752 27.238 17.8872 27.162C18.0032 27.086 18.1292 27.034 18.2652 27.006C18.4052 26.974 18.5532 26.972 18.7092 27V27.45C18.5412 27.418 18.3892 27.418 18.2532 27.45C18.1212 27.482 18.0072 27.542 17.9112 27.63C17.8152 27.718 17.7412 27.83 17.6892 27.966C17.6372 28.098 17.6112 28.252 17.6112 28.428V30H17.1612V27ZM20.801 27.9C20.801 27.584 20.853 27.296 20.957 27.036C21.061 26.772 21.207 26.546 21.395 26.358C21.587 26.166 21.807 26.018 22.055 25.914C22.307 25.81 22.581 25.758 22.877 25.758C23.309 25.758 23.687 25.858 24.011 26.058C24.339 26.258 24.587 26.542 24.755 26.91L24.365 27.054C24.273 26.858 24.151 26.698 23.999 26.574C23.847 26.446 23.675 26.35 23.483 26.286C23.291 26.222 23.089 26.19 22.877 26.19C22.577 26.19 22.307 26.258 22.067 26.394C21.827 26.53 21.637 26.726 21.497 26.982C21.361 27.238 21.293 27.544 21.293 27.9C21.293 28.252 21.361 28.556 21.497 28.812C21.637 29.068 21.827 29.266 22.067 29.406C22.307 29.542 22.577 29.61 22.877 29.61C23.093 29.61 23.299 29.576 23.495 29.508C23.691 29.44 23.867 29.334 24.023 29.19C24.183 29.046 24.311 28.866 24.407 28.65L24.797 28.794C24.625 29.206 24.373 29.518 24.041 29.73C23.709 29.938 23.321 30.042 22.877 30.042C22.581 30.042 22.307 29.99 22.055 29.886C21.807 29.782 21.587 29.634 21.395 29.442C21.207 29.25 21.061 29.024 20.957 28.764C20.853 28.5 20.801 28.212 20.801 27.9ZM27.4709 30L27.4349 29.46C27.3509 29.644 27.2269 29.788 27.0629 29.892C26.8989 29.992 26.6909 30.042 26.4389 30.042C26.2229 30.042 26.0389 30.008 25.8869 29.94C25.7349 29.872 25.6169 29.776 25.5329 29.652C25.4529 29.524 25.4129 29.374 25.4129 29.202C25.4129 28.95 25.5069 28.744 25.6949 28.584C25.8829 28.42 26.1549 28.32 26.5109 28.284L27.4349 28.182V27.942C27.4349 27.774 27.3729 27.64 27.2489 27.54C27.1249 27.436 26.9569 27.384 26.7449 27.384C26.5369 27.384 26.3629 27.432 26.2229 27.528C26.0869 27.624 25.9929 27.762 25.9409 27.942L25.5329 27.798C25.6129 27.534 25.7589 27.328 25.9709 27.18C26.1869 27.032 26.4489 26.958 26.7569 26.958C27.1129 26.958 27.3889 27.05 27.5849 27.234C27.7849 27.414 27.8849 27.66 27.8849 27.972V30H27.4709ZM27.4349 28.566L26.5049 28.674C26.3049 28.698 26.1529 28.754 26.0489 28.842C25.9449 28.926 25.8929 29.038 25.8929 29.178C25.8929 29.318 25.9429 29.43 26.0429 29.514C26.1469 29.598 26.2949 29.64 26.4869 29.64C26.7069 29.64 26.8869 29.596 27.0269 29.508C27.1669 29.42 27.2689 29.302 27.3329 29.154C27.4009 29.002 27.4349 28.838 27.4349 28.662V28.566ZM28.7628 27H29.1768L29.2008 27.438C29.2808 27.33 29.3768 27.238 29.4888 27.162C29.6048 27.086 29.7308 27.034 29.8668 27.006C30.0068 26.974 30.1548 26.972 30.3108 27V27.45C30.1428 27.418 29.9908 27.418 29.8548 27.45C29.7228 27.482 29.6088 27.542 29.5128 27.63C29.4168 27.718 29.3428 27.83 29.2908 27.966C29.2388 28.098 29.2128 28.252 29.2128 28.428V30H28.7628V27ZM33.1823 27.606L33.1343 27.612V25.68H33.5843V30H33.1703L33.1403 29.442C33.0483 29.61 32.9103 29.752 32.7263 29.868C32.5463 29.984 32.3223 30.042 32.0543 30.042C31.7783 30.042 31.5363 29.98 31.3283 29.856C31.1243 29.728 30.9643 29.548 30.8483 29.316C30.7363 29.084 30.6803 28.812 30.6803 28.5C30.6803 28.188 30.7363 27.918 30.8483 27.69C30.9643 27.458 31.1243 27.278 31.3283 27.15C31.5363 27.022 31.7783 26.958 32.0543 26.958C32.3383 26.958 32.5743 27.02 32.7623 27.144C32.9503 27.268 33.0903 27.422 33.1823 27.606ZM31.1663 28.5C31.1663 28.844 31.2543 29.118 31.4303 29.322C31.6063 29.522 31.8463 29.622 32.1503 29.622C32.3383 29.622 32.5063 29.578 32.6543 29.49C32.8023 29.402 32.9183 29.274 33.0023 29.106C33.0903 28.938 33.1343 28.736 33.1343 28.5C33.1343 28.264 33.0903 28.064 33.0023 27.9C32.9183 27.732 32.8023 27.604 32.6543 27.516C32.5063 27.424 32.3383 27.378 32.1503 27.378C31.8503 27.378 31.6103 27.48 31.4303 27.684C31.2543 27.884 31.1663 28.156 31.1663 28.5Z" fill="#FEFEFE"/>
<defs>
<clipPath id="clip0_10886_1697">
<rect width="34" height="23" fill="white" transform="translate(0.5)"/>
</clipPath>
</defs>
</svg>
