<svg width="136" height="148" viewBox="0 0 136 148" fill="none" xmlns="http://www.w3.org/2000/svg">
<g clip-path="url(#clip0_10601_77920)">
<path opacity="0.08" d="M68.0001 148.001C105.556 148.001 136 117.802 136 80.5492C136 43.2967 105.556 13.0977 68.0001 13.0977C30.4447 13.0977 0 43.2967 0 80.5492C0 117.802 30.4447 148.001 68.0001 148.001Z" fill="url(#paint0_linear_10601_77920)"/>
<path d="M45.5393 38.1788C45.5013 38.1788 45.4641 38.1683 45.4317 38.1487C45.3994 38.1291 45.373 38.101 45.3556 38.0676C45.3382 38.0341 45.3304 37.9966 45.3331 37.959C45.3357 37.9215 45.3487 37.8853 45.3707 37.8546C45.4088 37.8008 49.1524 32.4327 44.9734 27.539C44.2337 26.6681 43.3109 25.9683 42.2697 25.4886C41.2285 25.0088 40.0941 24.7608 38.9461 24.7619H38.891C39.2878 26.1294 39.217 27.3452 38.6551 28.278C38.4156 28.6995 38.0622 29.0463 37.6348 29.2794C37.2073 29.5124 36.7227 29.6224 36.2356 29.597C35.8325 29.5643 35.4477 29.4156 35.1284 29.1692C34.8092 28.9228 34.5693 28.5894 34.4382 28.2098C33.9786 27.0206 34.4589 25.8676 35.7247 25.1245C36.5266 24.6858 37.4178 24.4316 38.3322 24.3808C38.0348 23.5984 37.648 22.8524 37.1795 22.1573C35.6706 19.8715 32.9204 18.2893 29.6342 17.8161C26.8494 17.415 24.1804 17.8872 22.8338 19.0184C22.7919 19.0536 22.7376 19.0709 22.6829 19.0664C22.6281 19.0619 22.5774 19.036 22.5419 18.9945C22.5064 18.9529 22.489 18.899 22.4935 18.8447C22.498 18.7904 22.5241 18.7401 22.566 18.7049C23.9991 17.5009 26.7968 16.992 29.6936 17.4095C33.0975 17.8995 35.9521 19.5481 37.5262 21.9324C38.0366 22.6884 38.4517 23.5036 38.7624 24.3598C40.0006 24.3303 41.2297 24.5767 42.3591 25.0809C43.4886 25.5851 44.4896 26.3343 45.2884 27.2731C49.6783 32.4134 45.7479 38.036 45.7077 38.0921C45.6886 38.1189 45.6634 38.1407 45.6341 38.1557C45.6048 38.1708 45.5723 38.1787 45.5393 38.1788ZM38.4666 24.7777C37.58 24.8149 36.714 25.0547 35.9361 25.4783C34.8434 26.1199 34.4386 27.0619 34.8253 28.0629C34.9301 28.3696 35.1227 28.6394 35.3796 28.8392C35.6365 29.0391 35.9466 29.1603 36.2719 29.188C36.6814 29.2061 37.088 29.111 37.4461 28.9131C37.8043 28.7152 38.0999 28.4224 38.2999 28.0674C38.8164 27.2107 38.8639 26.0721 38.4666 24.7777Z" fill="#292A2E"/>
<path d="M79.6695 27.2773C79.6252 27.2773 79.582 27.2632 79.5464 27.237C79.5107 27.2109 79.4845 27.1741 79.4715 27.132C78.7844 24.5872 78.6011 21.9345 78.9317 19.3205C79.4672 15.499 81.5916 10.4837 88.6728 8.2876C89.6692 7.96982 90.6911 7.73742 91.7275 7.59296C92.061 5.52671 93.3304 3.28335 96.168 1.73629C102.913 -1.9397 107.468 1.35846 107.514 1.39215C107.557 1.42484 107.587 1.47352 107.594 1.52746C107.602 1.5814 107.588 1.63619 107.555 1.67979C107.522 1.72338 107.473 1.7522 107.419 1.7599C107.364 1.76761 107.309 1.75357 107.265 1.72088C107.222 1.68883 102.868 -1.44661 96.3679 2.09665C93.7155 3.54243 92.5011 5.61752 92.1558 7.54385C95.2791 7.23875 96.7747 8.27219 97.446 9.05271C97.8615 9.522 98.1286 10.1022 98.214 10.721C98.2994 11.3398 98.1994 11.9699 97.9263 12.5327C97.7103 12.9874 97.3604 13.3664 96.9228 13.6198C96.4852 13.8732 95.9804 13.9891 95.475 13.9522C93.7308 13.8507 92.2874 12.3952 91.7981 10.2441C91.6366 9.51597 91.5937 8.76686 91.671 8.02523C90.6962 8.16414 89.7347 8.38344 88.7967 8.68084C83.2778 10.3925 80.0974 13.9918 79.3419 19.3782C79.018 21.9329 79.1966 24.5256 79.8675 27.0129C79.877 27.0436 79.8791 27.0761 79.8737 27.1078C79.8682 27.1394 79.8553 27.1694 79.836 27.1952C79.8168 27.2211 79.7917 27.242 79.7628 27.2565C79.7339 27.271 79.7019 27.2785 79.6695 27.2785V27.2773ZM92.0933 7.97387C92.007 8.70137 92.0438 9.43806 92.2022 10.1535C92.6498 12.1214 93.9439 13.4513 95.4992 13.5419C95.9231 13.572 96.3463 13.4743 96.7133 13.2616C97.0802 13.049 97.3738 12.7313 97.5556 12.3502C97.7922 11.8595 97.8782 11.3106 97.8028 10.7719C97.7273 10.2331 97.4939 9.72818 97.1314 9.32C96.1629 8.19268 94.3955 7.73739 92.0933 7.97387Z" fill="#292A2E"/>
<path d="M115.049 41.153V117.89C115.049 118.766 114.699 119.605 114.075 120.225C113.45 120.844 112.604 121.191 111.721 121.191H13.9228C13.0401 121.191 12.1935 120.844 11.5693 120.225C10.9451 119.605 10.5945 118.766 10.5945 117.89V56.1347C10.5945 55.2591 10.9452 54.4194 11.5694 53.8003C12.1935 53.1812 13.0401 52.8333 13.9228 52.8333H72.584C73.4668 52.8333 74.3133 52.4854 74.9375 51.8663C75.5617 51.2472 75.9123 50.4074 75.9123 49.5318V41.153C75.9123 40.2774 76.263 39.4377 76.8872 38.8185C77.5113 38.1994 78.3579 37.8516 79.2406 37.8516H111.721C112.604 37.8516 113.45 38.1994 114.075 38.8185C114.699 39.4377 115.049 40.2774 115.049 41.153Z" fill="url(#paint1_linear_10601_77920)"/>
<path d="M111.721 121.397H13.9229C12.9856 121.396 12.087 121.026 11.4242 120.369C10.7614 119.712 10.3885 118.82 10.3873 117.89V56.1351C10.3885 55.2053 10.7614 54.314 11.4242 53.6566C12.087 52.9992 12.9856 52.6294 13.9229 52.6284H72.5842C73.4117 52.6274 74.2051 52.3009 74.7902 51.7204C75.3753 51.14 75.7044 50.353 75.7054 49.5322V41.1534C75.7064 40.2236 76.0792 39.3323 76.742 38.6748C77.4047 38.0174 78.3033 37.6476 79.2406 37.6465H111.721C112.658 37.6475 113.557 38.0173 114.22 38.6748C114.883 39.3322 115.255 40.2236 115.256 41.1534V117.89C115.255 118.82 114.883 119.711 114.22 120.369C113.557 121.026 112.658 121.396 111.721 121.397ZM13.9229 53.0393C13.0955 53.0402 12.3021 53.3666 11.7169 53.947C11.1318 54.5273 10.8026 55.3143 10.8016 56.1351V117.89C10.8025 118.711 11.1317 119.498 11.7168 120.079C12.302 120.659 13.0954 120.986 13.9229 120.986H111.721C112.549 120.985 113.342 120.659 113.927 120.079C114.512 119.498 114.841 118.711 114.842 117.89V41.1534C114.841 40.3326 114.512 39.5456 113.927 38.9652C113.342 38.3848 112.549 38.0583 111.721 38.0574H79.2406C78.4131 38.0584 77.6198 38.3849 77.0347 38.9653C76.4497 39.5457 76.1206 40.3326 76.1196 41.1534V49.5316C76.1186 50.4614 75.7458 51.3528 75.083 52.0103C74.4202 52.6677 73.5216 53.0376 72.5842 53.0387L13.9229 53.0393Z" fill="#262626"/>
<path d="M121.263 41.153V117.89C121.263 118.766 120.912 119.605 120.288 120.225C119.664 120.844 118.818 121.191 117.935 121.191H20.1365C19.2538 121.191 18.4072 120.844 17.7831 120.225C17.1589 119.605 16.8082 118.766 16.8082 117.89V56.1347C16.8083 55.2591 17.159 54.4194 17.7831 53.8003C18.4073 53.1812 19.2538 52.8333 20.1365 52.8333H78.7978C79.6805 52.8333 80.5271 52.4854 81.1512 51.8663C81.7754 51.2472 82.1261 50.4074 82.1261 49.5318V41.153C82.1261 40.2774 82.4767 39.4377 83.1009 38.8185C83.7251 38.1994 84.5716 37.8516 85.4544 37.8516H117.935C118.818 37.8516 119.664 38.1994 120.288 38.8185C120.912 39.4377 121.263 40.2774 121.263 41.153Z" fill="white"/>
<path d="M117.935 121.397H20.1367C19.1994 121.396 18.3007 121.026 17.6379 120.369C16.9751 119.712 16.6022 118.82 16.6011 117.89V56.1351C16.6022 55.2053 16.9751 54.314 17.6379 53.6566C18.3007 52.9992 19.1994 52.6294 20.1367 52.6284H78.798C79.6255 52.6274 80.4188 52.3009 81.0039 51.7204C81.5891 51.14 81.9182 50.353 81.9191 49.5322V41.1534C81.9202 40.2236 82.2929 39.3323 82.9557 38.6748C83.6184 38.0174 84.517 37.6476 85.4543 37.6465H117.935C118.872 37.6475 119.771 38.0173 120.434 38.6748C121.096 39.3322 121.469 40.2236 121.47 41.1534V117.89C121.469 118.82 121.096 119.711 120.433 120.369C119.771 121.026 118.872 121.396 117.935 121.397ZM20.1367 53.0393C19.3092 53.0402 18.5158 53.3666 17.9307 53.947C17.3455 54.5273 17.0163 55.3143 17.0153 56.1351V117.89C17.0163 118.711 17.3454 119.498 17.9306 120.079C18.5158 120.659 19.3092 120.986 20.1367 120.986H117.935C118.762 120.985 119.556 120.659 120.141 120.079C120.726 119.498 121.055 118.711 121.056 117.89V41.1534C121.055 40.3326 120.726 39.5456 120.141 38.9652C119.556 38.3848 118.762 38.0583 117.935 38.0574H85.4543C84.6269 38.0584 83.8336 38.3849 83.2485 38.9653C82.6634 39.5457 82.3343 40.3326 82.3334 41.1534V49.5316C82.3323 50.4614 81.9595 51.3528 81.2967 52.0103C80.6339 52.6677 79.7353 53.0376 78.798 53.0387L20.1367 53.0393Z" fill="#262626"/>
<path d="M61.1445 79.8668C62.4156 79.8668 63.446 78.8447 63.446 77.5838C63.446 76.3229 62.4156 75.3008 61.1445 75.3008C59.8733 75.3008 58.8429 76.3229 58.8429 77.5838C58.8429 78.8447 59.8733 79.8668 61.1445 79.8668Z" fill="url(#paint2_linear_10601_77920)"/>
<path d="M76.9267 79.8668C78.1978 79.8668 79.2283 78.8447 79.2283 77.5838C79.2283 76.3229 78.1978 75.3008 76.9267 75.3008C75.6556 75.3008 74.6251 76.3229 74.6251 77.5838C74.6251 78.8447 75.6556 79.8668 76.9267 79.8668Z" fill="url(#paint3_linear_10601_77920)"/>
<path d="M72.1214 83.5391H65.9497V83.95H72.1214V83.5391Z" fill="url(#paint4_linear_10601_77920)"/>
<g opacity="0.1">
<path d="M58.7703 84.1125C59.9042 84.1125 60.8235 83.6326 60.8235 83.0406C60.8235 82.4486 59.9042 81.9688 58.7703 81.9688C57.6363 81.9688 56.717 82.4486 56.717 83.0406C56.717 83.6326 57.6363 84.1125 58.7703 84.1125Z" fill="url(#paint5_linear_10601_77920)"/>
<path d="M79.3013 84.1125C80.4352 84.1125 81.3545 83.6326 81.3545 83.0406C81.3545 82.4486 80.4352 81.9688 79.3013 81.9688C78.1673 81.9688 77.248 82.4486 77.248 83.0406C77.248 83.6326 78.1673 84.1125 79.3013 84.1125Z" fill="url(#paint6_linear_10601_77920)"/>
</g>
</g>
<defs>
<linearGradient id="paint0_linear_10601_77920" x1="119.495" y1="13.0976" x2="-30.3548" y2="81.57" gradientUnits="userSpaceOnUse">
<stop stop-color="#006DCA"/>
<stop offset="1" stop-color="#1E96FC"/>
</linearGradient>
<linearGradient id="paint1_linear_10601_77920" x1="103.894" y1="37.8516" x2="4.8148" y2="98.4928" gradientUnits="userSpaceOnUse">
<stop stop-color="#00241B"/>
<stop offset="1"/>
</linearGradient>
<linearGradient id="paint2_linear_10601_77920" x1="62.9544" y1="75.3008" x2="58.1234" y2="77.6791" gradientUnits="userSpaceOnUse">
<stop stop-color="#00241B"/>
<stop offset="1"/>
</linearGradient>
<linearGradient id="paint3_linear_10601_77920" x1="78.7367" y1="75.3008" x2="73.9056" y2="77.6791" gradientUnits="userSpaceOnUse">
<stop stop-color="#00241B"/>
<stop offset="1"/>
</linearGradient>
<linearGradient id="paint4_linear_10601_77920" x1="71.4623" y1="83.5391" x2="71.3154" y2="84.6162" gradientUnits="userSpaceOnUse">
<stop stop-color="#00241B"/>
<stop offset="1"/>
</linearGradient>
<linearGradient id="paint5_linear_10601_77920" x1="60.3251" y1="81.9687" x2="57.2066" y2="84.6764" gradientUnits="userSpaceOnUse">
<stop stop-color="#006DCA"/>
<stop offset="1" stop-color="#1E96FC"/>
</linearGradient>
<linearGradient id="paint6_linear_10601_77920" x1="80.8561" y1="81.9687" x2="77.7377" y2="84.6764" gradientUnits="userSpaceOnUse">
<stop stop-color="#006DCA"/>
<stop offset="1" stop-color="#1E96FC"/>
</linearGradient>
<clipPath id="clip0_10601_77920">
<rect width="136" height="148" fill="white"/>
</clipPath>
</defs>
</svg>
