<svg width="377" height="195" viewBox="0 0 377 195" fill="none" xmlns="http://www.w3.org/2000/svg">
<g opacity="0.1">
<path d="M341.416 57.2397C341.014 56.4196 340.411 55.0638 339.569 54.6592C338.186 53.9954 336.715 55.1068 335.474 55.6883C333.176 56.7642 330.586 57.4539 328.405 55.7287C325.888 53.7373 325.137 49.9716 322.629 47.9233C319.493 45.3638 315.419 44.8901 311.935 43.1684C308.981 41.7089 306.541 39.2899 303.584 37.8117C298.323 35.1819 290.086 33.9145 284.316 34.497C279.21 35.0127 274.051 36.4349 269.209 38.2584C266.254 39.371 263.548 41.0386 260.44 41.6419C253.031 43.0799 244.27 38.3579 238.079 44.6776C232.777 50.0905 232.562 58.905 235.226 65.8226C236.78 69.8563 240.498 73.6934 238.212 78.2243C236.345 81.9264 232.22 83.0955 228.946 84.723C222.974 87.6921 217.808 92.8299 218.356 100.706M250.155 87.6327C249.665 86.0328 248.908 84.2163 248.981 82.5143C249.168 78.1305 253.425 75.0637 257.08 73.9213C258.701 73.4143 263.935 71.9675 265.492 72.9339C266.89 73.8018 267.479 75.6964 267.937 77.2177C268.192 78.0644 268.717 79.2661 268.549 80.1657C268.318 81.411 266.754 81.5767 265.793 81.8479C263.695 82.4405 261.791 83.579 260.168 85.0729C258.153 86.928 256.721 89.3818 256.065 92.0881C255.594 94.0334 255.77 96.9576 253.749 98.0429C252.169 98.8913 249.697 97.0418 248.4 96.2858C245.253 94.4519 241.646 92.7429 237.956 93.2572C234.51 93.7379 231.993 95.172 229.839 97.9736C228.83 99.2877 228.188 101.411 229.185 102.931C230.261 104.571 232.345 104.404 233.982 103.986C236.167 103.427 238.803 102.797 241.051 103.284C246.773 104.523 251.839 112.48 258.128 110.319C261.637 109.113 262.488 103.294 264.419 100.406C268.091 94.9125 274.799 93.4125 280.862 94.1914M350.369 82.8801C348.078 79.0707 347.167 73.157 343.679 70.3477C337.592 65.4464 327.105 71.6656 326.659 79.1094C326.327 84.6702 328.295 89.5061 329.885 94.6563C330.582 96.9115 331.6 100.887 330.485 103.176C328.904 106.421 325.981 106.916 323.114 108.451C319.985 110.127 317.179 112.459 314.073 114.215C307.927 117.693 300.742 120.663 294.091 116.769C290.024 114.388 287.001 110.385 283.116 107.695C279.769 105.378 274.003 103.65 271.577 108.221C268.077 114.814 275.878 115.911 279.119 118.329C282.119 120.568 283.922 124.019 286.728 126.451C289.823 129.134 299.994 130.464 295.157 137.397C294.076 138.947 292.809 140.229 291.816 141.874C290.584 143.915 289.134 146.181 287.037 147.353C284.078 149.006 282.947 147.127 282.234 144.08C280.688 137.468 281.69 130.861 275.25 126.713C269.527 123.027 263.065 124.872 256.903 123.506C251.612 122.332 247.663 118.432 242.599 116.875M350.713 83.4684C351.153 84.0884 351.665 84.6968 352.245 85.1796C356.011 88.3159 358.933 82.8402 360.156 80.0035C360.428 79.371 360.649 78.705 360.874 78.0526C361.172 77.1898 361.53 76.3433 361.944 75.5341C362.521 74.4055 363.17 73.2291 363.985 72.2651C366.228 69.6121 369.788 68.9772 372.086 71.8807C373.228 73.3248 373.818 75.2543 374.084 77.0802C374.634 80.854 373.873 86.053 371.191 88.8616C369.625 90.5014 367.504 91.3787 365.631 92.5583C363.185 94.099 360.943 95.9494 359.042 98.178C357.681 99.773 356.501 101.616 355.688 103.576C354.689 105.985 354.046 108.519 352.36 110.541C349.408 114.081 343.661 116.694 344.829 122.29C345.686 126.396 352.137 125.083 354.649 123.962C355.37 123.641 356.072 123.258 356.713 122.784C362.047 118.836 361.343 110.591 364.871 105.25C366.323 103.051 369.622 100.2 371.928 102.944C376.969 108.943 370.476 116.277 368.518 121.88C367.24 125.536 368.021 130.28 364.426 132.62C363.706 133.089 362.928 133.446 362.119 133.71C359.4 134.596 356.524 134.752 353.819 133.733C351.496 132.858 349.338 130.956 346.724 131.18M186.12 83.4684C186.56 84.0884 187.072 84.6968 187.652 85.1796C191.417 88.3159 194.34 82.8402 195.562 80.0035C195.835 79.371 196.056 78.705 196.281 78.0526C196.579 77.1898 196.937 76.3433 197.351 75.5341C197.928 74.4055 198.577 73.2291 199.391 72.2651C201.634 69.6121 205.196 68.9772 207.492 71.8807C208.635 73.3248 209.225 75.2543 209.491 77.0802C210.041 80.854 209.28 86.053 206.598 88.8616C205.032 90.5014 202.91 91.3787 201.037 92.5583C198.592 94.099 196.35 95.9494 194.448 98.178C193.087 99.773 191.908 101.616 191.095 103.576C190.096 105.985 189.453 108.519 187.767 110.541C184.815 114.081 179.068 116.694 180.236 122.29C181.093 126.396 187.544 125.083 190.055 123.962C190.777 123.641 191.479 123.258 192.119 122.784C197.454 118.836 196.75 110.591 200.277 105.25C201.73 103.051 205.029 100.2 207.335 102.944C212.376 108.943 205.882 116.277 203.925 121.88C202.647 125.536 203.427 130.28 199.833 132.62C199.113 133.089 198.334 133.446 197.525 133.71C194.806 134.596 191.931 134.752 189.225 133.733C186.903 132.858 184.745 130.956 182.131 131.18M338.468 79.8515C337.085 87.1615 342.685 91.5503 342.781 98.4787C342.896 106.864 334.215 117.219 329.713 123.736M323.434 118.348C319.646 123.462 316.156 121.937 311.649 126.096C309.457 128.119 305.579 131.936 306.226 135.257C306.825 138.337 310.42 141.617 312.867 141.172C317.901 140.257 326.083 131.461 330.737 134.376C333.952 136.389 335.802 139.989 339.041 141.922C342.421 143.939 346.013 142.982 349.578 144.115C352.545 145.057 354.658 147.487 357.52 148.572C362.005 150.272 368.211 147.994 371.454 152.275C374.863 156.777 373.918 161.784 374.43 167.062C374.79 170.774 376.033 174.197 377.001 177.757M160.522 115.569C156.735 120.683 150.748 122.403 146.241 126.563C144.048 128.586 141.944 130.739 142.59 134.06C143.19 137.141 146.856 137.723 149.303 137.278C154.336 136.363 161.49 131.461 166.144 134.376C169.359 136.389 171.208 139.989 174.448 141.922C177.828 143.939 181.42 142.982 184.985 144.115C187.952 145.057 190.065 147.487 192.926 148.571C197.412 150.272 203.618 147.994 206.86 152.275C210.269 156.777 209.324 161.784 209.837 167.062C210.197 170.774 211.44 174.197 212.407 177.757M337.674 168.502C345.854 173.363 351.558 177.162 361.365 176.42C367.146 175.983 368.202 166.732 364.057 163.335C361.091 160.904 356.563 161.558 353.048 161.542C348.128 161.521 342.708 160.77 338.199 158.618C333.872 156.554 330.952 152.417 327.055 149.697C326.018 148.973 323.681 147.351 322.745 148.762C319.312 153.937 324.714 159.803 326.886 164.253C328.716 168.003 329.464 172.528 330.052 176.661M173.081 168.502C181.261 173.363 186.965 177.162 196.771 176.42C202.552 175.983 203.608 166.732 199.464 163.335C196.498 160.904 191.97 161.558 188.455 161.542C183.534 161.521 178.115 160.77 173.605 158.618C169.279 156.554 166.359 152.417 162.462 149.697C161.424 148.973 159.088 147.351 158.151 148.762C154.719 153.937 160.121 159.803 162.293 164.253C164.123 168.003 164.871 172.528 165.459 176.661M263.431 151.404C266.15 147.574 269.366 147.596 272.349 151.264C275.96 155.704 276.816 162.216 283.421 162.572C293.276 163.103 294.554 149.522 303.065 145.447M272.978 165.918C276.195 171.293 282.084 175.227 288.351 173.484C293.413 172.076 298.495 167.555 302.052 163.706C304.151 161.435 307.979 153.866 311.6 155.06C314.239 155.93 315.652 159 316.146 161.629C317.184 167.152 315.194 172.685 317.928 177.911M309.503 167.376C309.503 171.555 306.213 175.283 308.932 188.891M309.503 -3.84766C309.503 0.331223 306.213 4.05978 308.932 17.6673M302.324 176.814C296.938 183.228 285.33 191.224 278.479 184.284C266.5 172.148 266.301 191.43 265.908 197.276M302.324 5.5908C296.938 12.0046 285.33 20.0005 278.479 13.06C270.727 5.20611 267.908 10.5103 266.777 16.8162M269.954 3.24557C267.914 9.47773 266.641 29.104 256.093 28.1462M267.138 -6.45508C263.722 -3.82355 260.783 -0.811433 258.878 3.4736C256.842 8.05487 256.4 13.138 252.297 16.0348C246.515 20.1171 241.62 15.0244 235.759 14.837C227.119 14.5608 217.559 26.9183 198.377 14.8037M267.138 164.88C263.722 167.511 260.783 170.524 258.878 174.809C256.842 179.39 256.4 184.473 252.297 187.37C246.514 191.452 241.62 186.359 235.758 186.172C226.23 184.839 221.216 198.198 198.682 186.4M222.014 178.064C219.477 165.234 228.908 162.786 243.293 175.935M272.319 26.5004C279.617 24.831 287.36 22.6956 294.839 24.2418C300.948 25.5044 306.266 29.2143 312.249 30.8729C321.855 33.5359 327.449 31.4299 333.795 41.2063M347.802 28.4331C344.16 33.7592 339.669 40.1052 340.559 47.0622M358.255 29.8885C355.276 34.0971 350.219 38.4964 349.337 43.8922C348.831 46.988 350.104 50.0185 349.963 53.1425C349.889 54.7929 350.066 62.3646 351.861 63.2419C356.103 65.3163 361.981 56.2785 366.747 56.0201M204.838 30.9836C221.573 33.1494 220.452 25.4859 243.293 23.492M191.323 46.9252C196.824 46.2001 202.396 45.434 207.552 43.2268M356.015 46.9252C361.517 46.2001 367.089 45.434 372.244 43.2268M227.213 120.274C226.31 122.998 225.446 125.849 225.111 128.715M320.364 23.1261C326.781 25.9819 334.354 12.7165 360.916 11.8257M320.364 194.453C326.781 197.309 342.781 175.6 374.201 191.049M320.364 23.2629C327.793 25.8848 342.919 4.10887 376.156 21.1578M218.294 41.4229C217.244 41.6029 215.953 41.7717 215.054 42.4366C213.452 43.6211 213.236 45.8623 213.385 47.7729C213.698 51.8035 215.232 55.6345 215.733 59.6415C216.244 63.727 215.795 67.6364 215.892 71.7122C215.963 74.7209 216.696 78.5014 220.259 78.1113C227.536 77.3145 226.223 68.1172 225.075 63.0354C224.805 61.8386 224.586 60.6409 224.442 59.4187C224.25 57.7996 224.076 56.1338 224.14 54.5008C224.264 51.3897 224.831 48.2705 225.572 45.2616C226.174 42.821 226.904 40.3242 228.29 38.2392C232.225 32.3205 240.628 30.8651 246.95 31.9142C249.861 32.3969 252.605 33.5191 255.399 34.4606M317.455 92.5285C319.701 104.984 302.131 113.713 294.043 104.852C288.902 99.2186 288.138 90.8478 290.906 83.8516C292.221 80.5266 297.96 74.535 294.916 71.2867C293.667 69.9544 291.448 70.4664 289.939 70.8645C285.721 71.9774 274.437 79.8903 274.379 69.9746C274.373 68.957 274.515 67.9218 274.847 66.9619C276.211 63.0202 280.535 61.4864 284.13 60.5926C291.992 58.6374 304.037 58.9352 308.645 67.3956C310.868 71.479 308.169 74.1593 305.722 77.2401C303.472 80.0725 300.928 83.6151 299.641 87.0509C298.408 90.3428 298.389 94.374 301.245 96.7338C303.66 98.7304 307.055 96.8195 308.307 94.3529C309.56 91.8862 309.292 88.958 310.52 86.502C311.741 84.0567 313.842 82.2145 315.139 79.8073C316.617 77.0621 317.159 73.861 318.405 70.9893C319.454 68.5711 321.042 65.072 320.052 62.3785C318.975 59.4495 314.358 60.2916 311.891 58.2816C308.86 55.8115 305.976 52.9723 302.475 51.2051C294.922 47.3928 284.775 47.6111 276.904 50.3298C272.785 51.7525 269.674 55.6225 265.409 56.4829C259.962 57.582 255.495 53.437 250.566 54.3388C247.071 54.9783 245.541 60.3483 247.927 62.9666C252.599 68.0925 259.371 60.8688 264.342 63.8422M267.941 134.509C261.23 136.572 255.626 139.274 253.613 146.85C253.132 148.662 252.888 150.479 252.986 152.36C253.252 157.439 255.407 164.841 247.715 164.726C239.152 164.597 241.447 150.93 242.289 145.379C242.582 143.45 242.747 141.116 243.817 139.449C245.638 136.613 249.351 135.803 251.026 132.942C252.132 131.052 250.803 128.947 249.373 127.769C241.655 121.411 231.214 130.657 230.685 139.242C230.386 144.09 233.091 149.341 231.052 154.027C229.244 158.179 224.689 157.738 222.28 154.439C220.121 151.482 216.725 147.639 216.547 144.08C216.352 140.203 217.034 136.792 216.547 132.942C216.002 128.64 215.658 121.105 218.957 118.329" stroke="white" stroke-width="2" stroke-miterlimit="1.5" stroke-linecap="round" stroke-linejoin="round"/>
<path d="M159.491 57.2397C159.089 56.4196 158.486 55.0638 157.644 54.6592C156.262 53.9954 154.79 55.1068 153.549 55.6883C151.252 56.7642 148.661 57.4539 146.481 55.7287C143.963 53.7373 143.213 49.9716 140.704 47.9233C137.569 45.3638 133.495 44.8901 130.01 43.1684C127.056 41.7089 124.617 39.2899 121.66 37.8117C116.398 35.1819 108.161 33.9145 102.391 34.497C97.2851 35.0127 92.1264 36.4349 87.2843 38.2584C84.3295 39.371 81.6236 41.0386 78.5151 41.6419C71.106 43.0799 62.3449 38.3579 56.1544 44.6776C50.8518 50.0905 50.6369 58.905 53.3015 65.8226C54.8554 69.8563 58.5729 73.6934 56.2875 78.2243C54.4202 81.9264 50.295 83.0955 47.0216 84.723C41.0493 87.6921 35.883 92.8299 36.4316 100.706M68.2299 87.6327C67.7406 86.0328 66.9831 84.2163 67.0559 82.5143C67.243 78.1305 71.5004 75.0637 75.1552 73.9213C76.7766 73.4143 82.0105 71.9675 83.5667 72.9339C84.9648 73.8018 85.5544 75.6964 86.0123 77.2177C86.2672 78.0644 86.7918 79.2661 86.6245 80.1657C86.3931 81.411 84.8288 81.5767 83.8683 81.8479C81.77 82.4405 79.8667 83.579 78.2433 85.0729C76.228 86.928 74.7962 89.3818 74.1406 92.0881C73.6694 94.0334 73.8455 96.9576 71.824 98.0429C70.2437 98.8913 67.7727 97.0418 66.4755 96.2858C63.3282 94.4519 59.7214 92.7429 56.0312 93.2572C52.5848 93.7379 50.0682 95.172 47.9146 97.9736C46.9047 99.2877 46.263 101.411 47.2601 102.931C48.336 104.571 50.4201 104.404 52.0571 103.986C54.2421 103.427 56.8781 102.797 59.1264 103.284C64.8479 104.523 69.9147 112.48 76.2036 110.319C79.7123 109.113 80.5631 103.294 82.4937 100.406C86.1665 94.9125 92.874 93.4125 98.937 94.1914M168.445 82.8801C166.153 79.0707 165.243 73.157 161.754 70.3477C155.667 65.4464 145.18 71.6656 144.734 79.1094C144.402 84.6702 146.37 89.5061 147.96 94.6563C148.657 96.9115 149.676 100.887 148.56 103.176C146.98 106.421 144.057 106.916 141.189 108.451C138.06 110.127 135.254 112.459 132.149 114.215C126.002 117.693 118.817 120.663 112.167 116.769C108.099 114.388 105.077 110.385 101.191 107.695C97.8439 105.378 92.0781 103.65 89.6518 108.221C86.1519 114.814 93.9535 115.911 97.1938 118.329C100.194 120.568 101.997 124.019 104.803 126.451C107.898 129.134 118.069 130.464 113.233 137.397C112.152 138.947 110.884 140.229 109.891 141.874C108.66 143.915 107.209 146.181 105.112 147.353C102.153 149.006 101.022 147.127 100.31 144.08C98.7635 137.468 99.7647 130.861 93.325 126.713C87.6021 123.027 81.1399 124.872 74.9781 123.506C69.687 122.332 65.7385 118.432 60.6745 116.875M168.789 83.4684C169.229 84.0884 169.74 84.6968 170.32 85.1796C174.086 88.3159 177.009 82.8402 178.231 80.0035C178.504 79.371 178.724 78.705 178.95 78.0526C179.248 77.1898 179.606 76.3433 180.019 75.5341C180.597 74.4055 181.245 73.2291 182.06 72.2651C184.303 69.6121 187.863 68.9772 190.161 71.8807C191.303 73.3248 191.893 75.2543 192.159 77.0802C192.709 80.854 191.949 86.053 189.266 88.8616C187.701 90.5014 185.579 91.3787 183.706 92.5583C181.26 94.099 179.019 95.9494 177.117 98.178C175.756 99.773 174.576 101.616 173.764 103.576C172.764 105.985 172.121 108.519 170.435 110.541C167.483 114.081 161.736 116.694 162.904 122.29C163.761 126.396 170.212 125.083 172.724 123.962C173.446 123.641 174.147 123.258 174.788 122.784C180.122 118.836 179.418 110.591 182.946 105.25C184.398 103.051 187.697 100.2 190.003 102.944C195.045 108.943 188.551 116.277 186.593 121.88C185.316 125.536 186.096 130.28 182.501 132.62C181.782 133.089 181.003 133.446 180.194 133.71C177.475 134.596 174.6 134.752 171.894 133.733C169.571 132.858 167.413 130.956 164.799 131.18M4.19519 83.4684C4.63532 84.0884 5.147 84.6968 5.727 85.1796C9.49247 88.3159 12.4154 82.8402 13.6375 80.0035C13.9101 79.371 14.1308 78.705 14.3562 78.0526C14.6543 77.1898 15.0122 76.3433 15.426 75.5341C16.0033 74.4055 16.6518 73.2291 17.4666 72.2651C19.7095 69.6121 23.2708 68.9772 25.5675 71.8807C26.7097 73.3248 27.3001 75.2543 27.5662 77.0802C28.1159 80.854 27.3548 86.053 24.6732 88.8616C23.1074 90.5014 20.985 91.3787 19.1125 92.5583C16.6669 94.099 14.4251 95.9494 12.5235 98.178C11.1625 99.773 9.98289 101.616 9.17016 103.576C8.17092 105.985 7.52772 108.519 5.84194 110.541C2.88981 114.081 -2.85697 116.694 -1.68918 122.29C-0.83198 126.396 5.61881 125.083 8.13062 123.962C8.85214 123.641 9.55381 123.258 10.1946 122.784C15.529 118.836 14.8249 110.591 18.3523 105.25C19.805 103.051 23.1046 100.2 25.4101 102.944C30.4515 108.943 23.9576 116.277 21.9998 121.88C20.7222 125.536 21.502 130.28 17.9079 132.62C17.1882 133.089 16.4097 133.446 15.6004 133.71C12.8814 134.596 10.0062 134.752 7.3005 133.733C4.97807 132.858 2.81985 130.956 0.205944 131.18M156.543 79.8515C155.16 87.1615 160.76 91.5503 160.856 98.4787C160.971 106.864 152.29 117.219 147.788 123.736M141.509 118.348C137.721 123.462 134.232 121.937 129.724 126.096C127.532 128.119 123.654 131.936 124.301 135.257C124.9 138.337 128.495 141.617 130.942 141.172C135.976 140.257 144.158 131.461 148.812 134.376C152.028 136.389 153.877 139.989 157.116 141.922C160.496 143.939 164.088 142.982 167.654 144.115C170.62 145.057 172.733 147.487 175.595 148.572C180.08 150.272 186.287 147.994 189.529 152.275C192.938 156.777 191.993 161.784 192.505 167.062C192.865 170.774 194.108 174.197 195.076 177.757M-21.4024 115.569C-25.19 120.683 -31.1767 122.403 -35.6843 126.563C-37.8767 128.586 -39.9808 130.739 -39.3345 134.06C-38.735 137.141 -35.0689 137.723 -32.622 137.278C-27.5884 136.363 -20.435 131.461 -15.781 134.376C-12.5657 136.389 -10.7165 139.989 -7.47725 141.922C-4.097 143.939 -0.504909 142.982 3.06035 144.115C6.02708 145.057 8.13981 147.487 11.0016 148.571C15.4871 150.272 21.6928 147.994 24.9352 152.275C28.3443 156.777 27.3992 161.784 27.9117 167.062C28.2723 170.774 29.5148 174.197 30.4826 177.757M155.749 168.502C163.929 173.363 169.634 177.162 179.44 176.42C185.222 175.983 186.277 166.732 182.133 163.335C179.167 160.904 174.638 161.558 171.123 161.542C166.203 161.521 160.784 160.77 156.274 158.618C151.947 156.554 149.027 152.417 145.131 149.697C144.093 148.973 141.756 147.351 140.82 148.762C137.387 153.937 142.789 159.803 144.961 164.253C146.792 168.003 147.539 172.528 148.128 176.661M-8.84397 168.502C-0.664169 173.363 5.04021 177.162 14.8464 176.42C20.6277 175.983 21.6836 166.732 17.5393 163.335C14.5731 160.904 10.0447 161.558 6.52991 161.542C1.60936 161.521 -3.80971 160.77 -8.31941 158.618C-12.6461 156.554 -15.566 152.417 -19.4627 149.697C-20.5005 148.973 -22.8372 147.351 -23.7734 148.762C-27.2062 153.937 -21.8042 159.803 -19.6321 164.253C-17.8018 168.003 -17.0542 172.528 -16.4658 176.661M81.5065 151.404C84.2256 147.574 87.4414 147.596 90.424 151.264C94.0349 155.704 94.8914 162.216 101.496 162.572C111.352 163.103 112.63 149.522 121.141 145.447M91.053 165.918C94.2698 171.293 100.159 175.227 106.426 173.484C111.488 172.076 116.57 167.555 120.127 163.706C122.226 161.435 126.054 153.866 129.675 155.06C132.314 155.93 133.727 159 134.221 161.629C135.259 167.152 133.27 172.685 136.003 177.911M127.579 167.376C127.579 171.555 124.288 175.283 127.007 188.891M127.579 -3.84766C127.579 0.331223 124.288 4.05978 127.007 17.6673M120.399 176.814C115.013 183.228 103.405 191.224 96.5547 184.284C84.5754 172.148 84.3757 191.43 83.983 197.276M120.399 5.5908C115.013 12.0046 103.405 20.0005 96.5546 13.06C88.8021 5.20611 85.9831 10.5103 84.8525 16.8162M88.0288 3.24557C85.989 9.47773 84.716 29.104 74.1682 28.1462M85.2133 -6.45508C81.7968 -3.82355 78.8583 -0.811433 76.9535 3.4736C74.9168 8.05487 74.4751 13.138 70.3719 16.0348C64.5897 20.1171 59.6952 15.0244 53.8337 14.837C45.1942 14.5608 35.6338 26.9183 16.4527 14.8037M85.2132 164.88C81.7968 167.511 78.8583 170.524 76.9535 174.809C74.9168 179.39 74.475 184.473 70.3719 187.37C64.5897 191.452 59.6952 186.359 53.8337 186.172C44.3054 184.839 39.2914 198.198 16.7574 186.4M40.0893 178.064C37.5523 165.234 46.9828 162.786 61.368 175.935M90.3946 26.5004C97.6918 24.831 105.435 22.6956 112.915 24.2418C119.023 25.5044 124.341 29.2143 130.324 30.8729C139.93 33.5359 145.524 31.4299 151.87 41.2063M165.877 28.4331C162.235 33.7592 157.744 40.1052 158.634 47.0622M176.33 29.8885C173.351 34.0971 168.294 38.4964 167.412 43.8922C166.906 46.988 168.179 50.0185 168.038 53.1425C167.964 54.7929 168.141 62.3646 169.936 63.2419C174.178 65.3163 180.056 56.2785 184.822 56.0201M22.9135 30.9836C39.6485 33.1494 38.5269 25.4859 61.3678 23.492M9.39806 46.9252C14.8995 46.2001 20.4713 45.434 25.627 43.2268M174.09 46.9252C179.592 46.2001 185.164 45.434 190.319 43.2268M45.2881 120.274C44.3856 122.998 43.5213 125.849 43.1864 128.715M138.439 23.1261C144.856 25.9819 152.429 12.7165 178.991 11.8257M138.439 194.453C144.856 197.309 160.856 175.6 192.276 191.049M138.439 23.2629C145.868 25.8848 160.994 4.10887 194.231 21.1578M36.3694 41.4229C35.3192 41.6029 34.0285 41.7717 33.1295 42.4366C31.5273 43.6211 31.3113 45.8623 31.4598 47.7729C31.7734 51.8035 33.3071 55.6345 33.8082 59.6415C34.3192 63.727 33.8704 67.6364 33.9672 71.7122C34.0386 74.7209 34.771 78.5014 38.3337 78.1113C45.6107 77.3145 44.2986 68.1172 43.1506 63.0354C42.8801 61.8386 42.6614 60.6409 42.5167 59.4187C42.3253 57.7996 42.1508 56.1338 42.2157 54.5008C42.3396 51.3897 42.906 48.2705 43.6475 45.2616C44.2489 42.821 44.9797 40.3242 46.3656 38.2392C50.2998 32.3205 58.703 30.8651 65.0255 31.9142C67.9359 32.3969 70.6805 33.5191 73.4743 34.4606M135.53 92.5285C137.776 104.984 120.206 113.713 112.118 104.852C106.977 99.2186 106.213 90.8478 108.981 83.8516C110.296 80.5266 116.036 74.535 112.991 71.2867C111.742 69.9544 109.523 70.4664 108.014 70.8645C103.796 71.9774 92.5126 79.8903 92.4544 69.9746C92.4484 68.957 92.5902 67.9218 92.9223 66.9619C94.2858 63.0202 98.6102 61.4864 102.205 60.5926C110.067 58.6374 122.113 58.9352 126.72 67.3956C128.943 71.479 126.244 74.1593 123.797 77.2401C121.548 80.0725 119.003 83.6151 117.717 87.0509C116.484 90.3428 116.465 94.374 119.32 96.7338C121.736 98.7304 125.13 96.8195 126.383 94.3529C127.635 91.8862 127.368 88.958 128.595 86.502C129.817 84.0567 131.917 82.2145 133.214 79.8073C134.692 77.0621 135.234 73.861 136.48 70.9893C137.529 68.5711 139.117 65.072 138.127 62.3785C137.05 59.4495 132.433 60.2916 129.966 58.2816C126.935 55.8115 124.051 52.9723 120.55 51.2051C112.997 47.3928 102.85 47.6111 94.9789 50.3298C90.8604 51.7525 87.7491 55.6225 83.4847 56.4829C78.0371 57.582 73.5697 53.437 68.6415 54.3388C65.1462 54.9783 63.6166 60.3483 66.0026 62.9666C70.6737 68.0925 77.4458 60.8688 82.417 63.8422M86.0161 134.509C79.3048 136.572 73.7007 139.274 71.6883 146.85C71.207 148.662 70.9629 150.479 71.0613 152.36C71.3268 157.439 73.4825 164.841 65.7899 164.726C57.2272 164.597 59.5222 150.93 60.3644 145.379C60.6569 143.45 60.822 141.116 61.8927 139.449C63.7131 136.613 67.4266 135.803 69.101 132.942C70.2068 131.052 68.878 128.947 67.4487 127.769C59.7297 121.411 49.2894 130.657 48.7597 139.242C48.4608 144.09 51.1666 149.341 49.1268 154.027C47.3192 158.179 42.7643 157.738 40.3554 154.439C38.1958 151.482 34.8002 147.639 34.622 144.08C34.4277 140.203 35.1092 136.792 34.622 132.942C34.0775 128.64 33.7333 121.105 37.0321 118.329" stroke="white" stroke-width="2" stroke-miterlimit="1.5" stroke-linecap="round" stroke-linejoin="round"/>
</g>
</svg>
